<?xml version="1.0" standalone="no"?>
<!DOCTYPE svg PUBLIC "-//W3C//DTD SVG 20010904//EN"
 "http://www.w3.org/TR/2001/REC-SVG-20010904/DTD/svg10.dtd">
<svg version="1.0" xmlns="http://www.w3.org/2000/svg"
 width="608.000000pt" height="608.000000pt" viewBox="0 0 608.000000 608.000000"
 preserveAspectRatio="xMidYMid meet">
<metadata>
Created by potrace 1.14, written by Peter Selinger 2001-2017
</metadata>
<g transform="translate(0.000000,608.000000) scale(0.100000,-0.100000)"
fill="#000000" stroke="none">
<path d="M1500 4697 c-3 -3 -32 -7 -65 -10 -205 -20 -446 -104 -646 -224 -278
-168 -509 -428 -646 -728 -51 -113 -75 -182 -109 -315 -25 -98 -27 -122 -30
-350 -3 -237 -1 -261 30 -415 25 -117 108 -324 185 -459 245 -427 703 -733
1202 -803 71 -10 349 -10 419 0 45 6 138 23 148 26 2 1 9 3 20 5 285 64 564
219 779 433 29 29 53 57 53 62 0 6 -34 64 -76 128 -42 65 -91 141 -109 168
-17 28 -83 130 -146 227 -63 98 -133 207 -156 243 -32 52 -42 63 -47 48 -10
-32 -89 -149 -133 -196 -92 -100 -194 -164 -328 -207 -99 -32 -280 -36 -385
-10 -258 67 -467 273 -536 532 -27 100 -27 264 0 370 71 275 286 483 561 544
81 18 273 12 345 -11 91 -29 164 -67 250 -131 96 -72 135 -123 302 -389 237
-378 321 -511 486 -765 90 -140 189 -295 221 -343 131 -205 192 -277 323 -384
150 -122 317 -214 511 -279 84 -28 133 -40 282 -69 17 -4 104 -8 195 -10 240
-5 396 21 615 102 367 136 704 438 878 789 66 132 73 150 107 254 59 183 75
296 75 520 0 161 -12 270 -42 380 -8 30 -16 63 -18 73 -11 52 -64 184 -110
278 -99 200 -230 369 -406 524 -204 179 -534 335 -784 370 -16 3 -41 7 -55 11
-43 10 -352 13 -419 3 -236 -34 -421 -96 -609 -203 -172 -98 -413 -299 -395
-329 10 -17 183 -283 274 -420 44 -66 79 -123 79 -127 0 -5 3 -10 8 -12 4 -1
32 -41 62 -88 98 -151 109 -165 117 -144 8 25 71 123 89 141 7 8 19 22 26 31
55 73 194 164 319 209 67 24 88 26 219 27 130 0 153 -3 222 -26 239 -80 422
-270 490 -507 19 -66 20 -77 24 -181 7 -213 -69 -404 -219 -550 -295 -285
-734 -280 -1028 12 -51 51 -216 285 -259 368 -7 14 -16 27 -19 30 -7 5 -229
354 -404 635 -55 88 -116 185 -135 215 -19 30 -43 69 -53 85 -99 161 -211 316
-271 376 -220 218 -545 390 -834 440 -32 5 -70 12 -84 15 -35 6 -355 16 -360
11z"/>
</g>
</svg>
