<svg width="13" height="13" viewBox="0 0 13 13" fill="none" xmlns="http://www.w3.org/2000/svg">
<path d="M5.57031 1.52832L6.17188 0.926758C6.44531 0.680664 6.85547 0.680664 7.10156 0.926758L12.4336 6.23145C12.6797 6.50488 12.6797 6.91504 12.4336 7.16113L7.10156 12.4932C6.85547 12.7393 6.44531 12.7393 6.17188 12.4932L5.57031 11.8916C5.32422 11.6182 5.32422 11.208 5.57031 10.9346L8.87891 7.79004H1.03125C0.648438 7.79004 0.375 7.5166 0.375 7.13379V6.25879C0.375 5.90332 0.648438 5.60254 1.03125 5.60254H8.87891L5.57031 2.48535C5.32422 2.21191 5.29688 1.80176 5.57031 1.52832Z" fill="#F4F5F6"/>
</svg>
