<svg width="567" height="80" fill="none" xmlns="http://www.w3.org/2000/svg"><path d="M.094.605h566.094v79H.094z"/><path d="M64.469 16.05c-6.899 0-13.121 2.98-17.475 7.729l7.793 11.873c1.678-3.71 5.386-6.295 9.682-6.295 5.87 0 10.645 4.821 10.645 10.748 0 5.926-4.775 10.748-10.645 10.748-3.97 0-7.251-2.316-9.264-5.464C44.954 29.357 46.5 31.612 43.182 26.381c-.806-1.272-1.774-2.59-2.017-2.848-4.342-4.606-10.468-7.483-17.247-7.483C10.782 16.05.094 26.843.094 40.105s10.688 24.054 23.824 24.054c6.934 0 13.184-3.007 17.54-7.797l-7.74-12.063c-1.622 3.849-5.403 6.553-9.8 6.553-5.87 0-10.645-4.82-10.645-10.747s4.775-10.748 10.645-10.748c3.915 0 7.236 2.214 9.192 5.338 8.042 12.83 8.79 13.826 12.27 19.282.897 1.405 2.346 3.235 2.82 3.682 4.26 4.028 9.983 6.5 16.269 6.5 13.136 0 23.824-10.791 23.824-24.054 0-13.263-10.688-24.054-23.824-24.054Z" fill="#03D9C5"/><path d="M110.829 65.605V18.67h8.568v46.935h-8.568Zm16.902 0V31.333h7.749v6.741l-.63-1.197c.798-2.058 2.1-3.612 3.906-4.662 1.848-1.092 3.99-1.638 6.426-1.638 2.52 0 4.746.546 6.678 1.638a11.538 11.538 0 0 1 4.599 4.6c1.092 1.931 1.638 4.178 1.638 6.74v22.05h-8.253V45.508c0-1.512-.294-2.814-.882-3.906-.588-1.092-1.407-1.932-2.457-2.52-1.008-.63-2.205-.945-3.591-.945-1.344 0-2.541.315-3.591.945-1.05.588-1.869 1.428-2.457 2.52-.588 1.092-.882 2.394-.882 3.906v20.097h-8.253Zm41.314 0v-26.9h-6.048v-7.372h6.048V30.2c0-2.604.525-4.809 1.575-6.615a10.736 10.736 0 0 1 4.536-4.22c1.932-.967 4.221-1.45 6.867-1.45.504 0 1.049.042 1.637.126.63.042 1.155.105 1.575.19v7.118a6.11 6.11 0 0 0-1.197-.126 7.642 7.642 0 0 0-.945-.063c-1.847 0-3.275.42-4.283 1.26-1.008.798-1.512 2.058-1.512 3.78v1.134h14.993v7.371h-14.993v26.9h-8.253Zm20.159 0V31.333h8.316v34.272h-8.316Zm15.185 0V31.333h7.749v6.741l-.63-1.197c.798-2.058 2.1-3.612 3.906-4.662 1.848-1.092 3.99-1.638 6.426-1.638 2.519 0 4.745.546 6.677 1.638a11.538 11.538 0 0 1 4.599 4.6c1.092 1.931 1.638 4.178 1.638 6.74v22.05h-8.253V45.508c0-1.512-.294-2.814-.882-3.906-.588-1.092-1.407-1.932-2.456-2.52-1.008-.63-2.205-.945-3.591-.945-1.344 0-2.541.315-3.591.945-1.05.588-1.869 1.428-2.457 2.52-.588 1.092-.882 2.394-.882 3.906v20.097h-8.253Zm37.344 0V31.333h8.253v34.272h-8.253Zm0-38.115v-8.82h8.253v8.82h-8.253Zm12.786 38.115 11.97-17.2-12.033-17.072h9.702l9.387 13.86h-4.347l9.387-13.86h9.639l-11.97 17.073 11.907 17.199h-9.639l-9.261-13.797h4.221l-9.261 13.797h-9.702Z" fill="#fff"/><path d="M307.293 15.867v48.108" stroke="#fff" stroke-width=".916"/><path d="M327.091 35.605V18.538h1.878l9.805 13.79-.847.092V18.538h2.268v17.067h-1.879l-9.759-13.883.779-.092v13.975h-2.245Zm16.913 0V18.538h10.813v2.061h-8.568v5.521h7.766v2.062h-7.766v7.423h-2.245Zm16.334 0V20.6h-4.627v-2.062h11.454v2.061h-4.559v15.006h-2.268Zm17.441.275c-.962 0-1.817-.176-2.566-.527-.748-.367-1.336-.878-1.764-1.535-.412-.672-.618-1.443-.618-2.314 0-.748.137-1.405.412-1.97a5.553 5.553 0 0 1 1.008-1.49 8.195 8.195 0 0 1 1.237-1.03c.428-.29.779-.52 1.054-.687l1.306-.756c.443-.26.87-.543 1.283-.848a4.5 4.5 0 0 0 1.031-1.054 2.43 2.43 0 0 0 .412-1.374c0-.596-.199-1.092-.596-1.49-.397-.396-.893-.595-1.489-.595-.595 0-1.092.198-1.489.596-.397.397-.596.9-.596 1.512 0 .412.1.817.298 1.214.199.397.443.779.733 1.145.291.352.581.68.871.985l9.278 9.943h-2.818l-8.132-8.568a18.283 18.283 0 0 1-1.1-1.26 7.56 7.56 0 0 1-.939-1.512 4.615 4.615 0 0 1-.367-1.856c0-.825.191-1.542.573-2.153a4.213 4.213 0 0 1 1.558-1.466 4.358 4.358 0 0 1 2.13-.527c.764 0 1.459.175 2.085.527a3.93 3.93 0 0 1 1.535 1.42c.382.61.572 1.313.572 2.108 0 .81-.19 1.52-.572 2.13a6.302 6.302 0 0 1-1.375 1.535c-.534.412-1.038.756-1.512 1.03l-1.283.78c-.381.244-.786.534-1.214.87-.427.321-.794.71-1.099 1.169-.306.443-.459.985-.459 1.626 0 .764.245 1.36.733 1.787.504.428 1.154.642 1.948.642.504 0 .954-.084 1.351-.252.397-.168.749-.39 1.054-.665.321-.275.603-.572.848-.893.244-.336.473-.665.687-.985l2.635-3.918h2.451l-3.093 4.72c-.229.381-.519.801-.87 1.26a9.009 9.009 0 0 1-1.238 1.305 6.285 6.285 0 0 1-1.672 1.031c-.626.26-1.367.39-2.222.39Zm16.741-.275V18.538h2.062l6.391 9.095h-1.054l6.346-9.095h2.062v17.067h-2.268V21.378l.802.252-6.346 8.935h-.183l-6.277-8.935.71-.252v14.227h-2.245Zm19.598 0V18.538h11.11v2.061h-8.865v5.407h8.407v2.062h-8.407v5.475h8.865v2.062h-11.11Zm16.871 0V20.6h-4.628v-2.062h11.455v2.061h-4.559v15.006h-2.268Zm6.2 0 6.117-17.067h2.657l6.117 17.067h-2.406l-1.397-4.01h-7.285l-1.397 4.01h-2.406Zm4.513-6.071h5.865l-3.253-9.37h.641l-3.253 9.37Zm15.789 6.07-6.163-17.066h2.406l5.223 15.005h-.481l5.223-15.005h2.405l-6.139 17.067h-2.474Zm10.767 0V18.539h11.11v2.061h-8.865v5.407h8.407v2.062h-8.407v5.475h8.865v2.062h-11.11Zm13.893 0V18.539h6.025c1.13 0 2.122.213 2.978.641a4.729 4.729 0 0 1 1.993 1.833c.488.794.733 1.726.733 2.795 0 1.206-.306 2.23-.917 3.07-.61.84-1.435 1.443-2.474 1.81l3.964 6.918h-2.612l-4.169-7.4 1.489.87h-4.765v6.53h-2.245Zm2.245-8.59h3.848c.672 0 1.26-.13 1.764-.39s.894-.633 1.169-1.122c.29-.489.435-1.054.435-1.695 0-.657-.145-1.222-.435-1.696a2.764 2.764 0 0 0-1.169-1.122c-.504-.26-1.092-.39-1.764-.39h-3.848v6.415Zm18.474 8.866c-1.084 0-2.077-.199-2.978-.596a6.836 6.836 0 0 1-2.291-1.672 6.426 6.426 0 0 1-1.352-2.36l1.948-.802c.412 1.1 1.023 1.948 1.832 2.543.825.58 1.787.87 2.887.87.672 0 1.26-.106 1.764-.32.504-.214.893-.512 1.168-.893a2.27 2.27 0 0 0 .436-1.375c0-.718-.207-1.283-.619-1.695-.397-.428-.985-.749-1.764-.962l-3.138-.963c-1.238-.381-2.184-.985-2.841-1.81a4.431 4.431 0 0 1-.985-2.84c0-.932.221-1.749.664-2.451a4.636 4.636 0 0 1 1.879-1.673c.809-.412 1.725-.618 2.749-.618 1.023 0 1.947.183 2.772.55a6.29 6.29 0 0 1 2.13 1.489 5.757 5.757 0 0 1 1.283 2.107l-1.924.802c-.367-.962-.917-1.688-1.65-2.176-.733-.504-1.596-.756-2.588-.756-.611 0-1.153.107-1.627.32a2.39 2.39 0 0 0-1.077.894c-.244.382-.366.84-.366 1.374 0 .627.198 1.184.595 1.673.398.489 1.001.863 1.81 1.122l2.864.848c1.344.412 2.359 1 3.047 1.764.687.764 1.031 1.71 1.031 2.84 0 .932-.245 1.757-.733 2.475-.474.718-1.138 1.283-1.994 1.695-.84.397-1.817.596-2.932.596Zm8.946-.275V18.538h11.11v2.061h-8.865v5.407h8.407v2.062h-8.407v5.475h8.865v2.062h-11.11Zm-184.725 29V47.538h11.111V49.6h-8.866v5.406h8.407v2.062h-8.407v5.475h8.866v2.062h-11.111Zm12.243 0 5.567-8.66-5.429-8.407h2.566l4.604 7.17h-.962l4.605-7.17h2.566l-5.43 8.407 5.567 8.66h-2.566l-4.742-7.423h.962l-4.765 7.423h-2.543Zm15.811 0V47.538h6.025c1.13 0 2.123.214 2.978.641a4.717 4.717 0 0 1 1.993 1.833c.489.794.734 1.726.734 2.795s-.245 2-.734 2.795c-.473.779-1.137 1.39-1.993 1.832-.84.428-1.832.642-2.978.642h-3.78v6.529h-2.245Zm2.245-8.591h3.849c.687 0 1.283-.13 1.787-.39s.893-.633 1.168-1.122c.275-.489.413-1.054.413-1.695 0-.657-.138-1.222-.413-1.696a2.762 2.762 0 0 0-1.168-1.122c-.504-.26-1.1-.39-1.787-.39h-3.849v6.415Zm12.521 8.59V47.539h11.11V49.6h-8.865v5.406h8.407v2.062h-8.407v5.475h8.865v2.062h-11.11Zm13.893 0V47.539h6.025c1.13 0 2.123.214 2.978.641a4.729 4.729 0 0 1 1.993 1.833c.489.794.733 1.726.733 2.795 0 1.206-.305 2.23-.916 3.07-.611.84-1.436 1.443-2.475 1.81l3.964 6.918h-2.612l-4.169-7.4 1.489.87h-4.765v6.53h-2.245Zm2.245-8.59h3.848c.672 0 1.26-.13 1.764-.39s.894-.633 1.169-1.122c.29-.489.435-1.054.435-1.695 0-.657-.145-1.222-.435-1.696a2.764 2.764 0 0 0-1.169-1.122c-.504-.26-1.092-.39-1.764-.39h-3.848v6.415Zm12.61 8.59V47.539h2.245v17.067h-2.245Zm6.04 0V47.539h11.111V49.6h-8.866v5.406h8.408v2.062h-8.408v5.475h8.866v2.062h-11.111Zm13.893 0V47.539h1.878l9.805 13.79-.847.092V47.538h2.268v17.067h-1.879l-9.759-13.883.779-.092v13.975h-2.245Zm24.771.276c-1.207 0-2.322-.214-3.345-.642a8.255 8.255 0 0 1-2.657-1.855 8.458 8.458 0 0 1-1.741-2.795c-.413-1.07-.619-2.238-.619-3.505 0-1.283.206-2.46.619-3.528.412-1.07.992-2.001 1.741-2.795a7.67 7.67 0 0 1 2.657-1.833c1.023-.443 2.138-.664 3.345-.664 1.176 0 2.23.206 3.161.618.947.413 1.741.947 2.383 1.604.656.657 1.122 1.36 1.397 2.108l-2.062.939a5.146 5.146 0 0 0-1.855-2.291c-.84-.596-1.848-.894-3.024-.894-1.191 0-2.253.283-3.184.848-.917.565-1.635 1.352-2.154 2.36-.519 1.008-.779 2.184-.779 3.528 0 1.328.26 2.497.779 3.505s1.237 1.794 2.154 2.36c.931.564 1.993.847 3.184.847 1.176 0 2.184-.29 3.024-.87a5.291 5.291 0 0 0 1.855-2.314l2.062.939c-.275.748-.741 1.45-1.397 2.108-.642.656-1.436 1.19-2.383 1.603-.931.413-1.985.619-3.161.619Zm9.995-.275V47.538h11.111V49.6h-8.866v5.406h8.407v2.062h-8.407v5.475h8.866v2.062h-11.111Z" fill="#fff"/></svg>