<svg width="442" height="80" fill="none" xmlns="http://www.w3.org/2000/svg"><path d="M0 .736h442.001v79H0z"/><path d="M64.375 16.182c-6.899 0-13.12 2.979-17.475 7.728l7.794 11.874c1.677-3.71 5.385-6.295 9.681-6.295 5.87 0 10.645 4.82 10.645 10.747s-4.775 10.748-10.645 10.748c-3.969 0-7.251-2.316-9.263-5.463-10.252-16.032-8.706-13.778-12.024-19.008-.806-1.272-1.774-2.59-2.017-2.849-4.342-4.606-10.467-7.482-17.247-7.482C10.688 16.182 0 26.973 0 40.236 0 53.5 10.688 64.291 23.824 64.291c6.934 0 13.184-3.007 17.54-7.797l-7.74-12.063c-1.622 3.848-5.403 6.553-9.8 6.553-5.87 0-10.645-4.821-10.645-10.748 0-5.926 4.775-10.747 10.645-10.747 3.916 0 7.236 2.213 9.192 5.338 8.042 12.83 8.79 13.826 12.27 19.282.897 1.404 2.346 3.234 2.82 3.682 4.26 4.028 9.984 6.5 16.27 6.5 13.135 0 23.823-10.791 23.823-24.055 0-13.263-10.688-24.054-23.824-24.054Z" fill="#DB3957"/><path d="M110.735 65.736V18.802h8.568v46.934h-8.568Zm16.903 0V31.465h7.749v6.74l-.63-1.196c.798-2.058 2.1-3.612 3.906-4.662 1.848-1.092 3.989-1.638 6.425-1.638 2.52 0 4.746.546 6.678 1.638a11.538 11.538 0 0 1 4.599 4.599c1.092 1.932 1.638 4.179 1.638 6.74v22.05h-8.253V45.64c0-1.512-.294-2.814-.882-3.906-.588-1.092-1.407-1.932-2.457-2.52-1.008-.63-2.205-.945-3.591-.945-1.343 0-2.54.315-3.59.945-1.05.588-1.869 1.428-2.457 2.52-.588 1.092-.882 2.394-.882 3.906v20.096h-8.253Zm41.313 0v-26.9h-6.048v-7.371h6.048V30.33c0-2.604.525-4.81 1.575-6.615a10.736 10.736 0 0 1 4.536-4.221c1.932-.966 4.221-1.45 6.867-1.45.504 0 1.05.043 1.638.127.63.042 1.155.105 1.575.189v7.119a6.11 6.11 0 0 0-1.197-.126 7.642 7.642 0 0 0-.945-.063c-1.848 0-3.276.42-4.284 1.26-1.008.798-1.512 2.058-1.512 3.78v1.134h14.994v7.37h-14.994v26.901h-8.253Zm20.16 0V31.465h8.316v34.271h-8.316Zm15.184 0V31.465h7.749v6.74l-.63-1.196c.798-2.058 2.1-3.612 3.906-4.662 1.848-1.092 3.99-1.638 6.426-1.638 2.52 0 4.746.546 6.678 1.638a11.538 11.538 0 0 1 4.599 4.599c1.092 1.932 1.638 4.179 1.638 6.74v22.05h-8.253V45.64c0-1.512-.294-2.814-.882-3.906-.588-1.092-1.407-1.932-2.457-2.52-1.008-.63-2.205-.945-3.591-.945-1.344 0-2.541.315-3.591.945-1.05.588-1.869 1.428-2.457 2.52-.588 1.092-.882 2.394-.882 3.906v20.096h-8.253Zm37.344 0V31.465h8.253v34.271h-8.253Zm0-38.114v-8.82h8.253v8.82h-8.253Zm12.786 38.114 11.97-17.199-12.033-17.072h9.702l9.387 13.86h-4.347l9.387-13.86h9.639l-11.97 17.073 11.907 17.198h-9.639l-9.261-13.797h4.221l-9.261 13.797h-9.702Z" fill="#fff"/><path d="M307.199 17.154v48.109" stroke="#fff" stroke-width=".916"/><path d="M332.768 36.011c-1.084 0-2.077-.198-2.978-.595a6.838 6.838 0 0 1-2.291-1.673 6.426 6.426 0 0 1-1.352-2.36l1.948-.801c.412 1.1 1.023 1.947 1.832 2.543.825.58 1.787.87 2.887.87.672 0 1.26-.107 1.764-.32.504-.214.893-.512 1.168-.894a2.27 2.27 0 0 0 .435-1.374c0-.718-.206-1.283-.618-1.696-.397-.427-.985-.748-1.764-.962l-3.139-.962c-1.237-.382-2.184-.985-2.84-1.81a4.431 4.431 0 0 1-.985-2.84c0-.932.221-1.75.664-2.452a4.636 4.636 0 0 1 1.879-1.672c.809-.413 1.725-.619 2.749-.619 1.023 0 1.947.184 2.772.55a6.29 6.29 0 0 1 2.13 1.49 5.77 5.77 0 0 1 1.283 2.107l-1.924.802c-.367-.962-.917-1.688-1.65-2.177-.733-.504-1.596-.756-2.588-.756-.611 0-1.154.107-1.627.321a2.39 2.39 0 0 0-1.077.893c-.244.382-.366.84-.366 1.375 0 .626.198 1.184.595 1.672.397.49 1.001.863 1.81 1.123l2.864.848c1.344.412 2.359 1 3.047 1.764.687.763 1.031 1.71 1.031 2.84 0 .932-.245 1.756-.734 2.474-.473.718-1.137 1.283-1.993 1.696-.84.397-1.817.595-2.932.595Zm17.101 0a8.927 8.927 0 0 1-3.39-.641 8.58 8.58 0 0 1-2.772-1.856 8.705 8.705 0 0 1-1.833-2.795c-.443-1.084-.664-2.26-.664-3.528 0-1.283.221-2.458.664-3.528.443-1.069 1.054-2 1.833-2.794a8.335 8.335 0 0 1 2.749-1.833c1.054-.428 2.191-.642 3.413-.642s2.352.222 3.391.665a8.047 8.047 0 0 1 2.749 1.832 8.268 8.268 0 0 1 1.855 2.772c.458 1.07.688 2.245.688 3.528 0 1.268-.23 2.444-.688 3.528a8.522 8.522 0 0 1-1.855 2.795 8.334 8.334 0 0 1-2.749 1.856c-1.039.427-2.169.641-3.391.641Zm0-2.085c.947 0 1.81-.168 2.589-.504a6.166 6.166 0 0 0 2.016-1.443 6.542 6.542 0 0 0 1.329-2.153 7.22 7.22 0 0 0 .481-2.635 7.04 7.04 0 0 0-.481-2.611 6.29 6.29 0 0 0-1.329-2.13 5.75 5.75 0 0 0-2.016-1.444c-.779-.351-1.642-.527-2.589-.527-.932 0-1.787.176-2.566.527a5.986 5.986 0 0 0-2.039 1.443 6.772 6.772 0 0 0-1.328 2.13 7.02 7.02 0 0 0-.481 2.612c0 .932.16 1.81.481 2.635.32.81.763 1.527 1.328 2.153a6.435 6.435 0 0 0 2.039 1.444c.779.335 1.634.503 2.566.503Zm11.957 1.81V18.67h10.813v2.062h-8.568v5.521h7.766v2.062h-7.766v7.422h-2.245Zm16.334 0V20.731h-4.627v-2.062h11.454v2.062h-4.559v15.005h-2.268Z" fill="#fff"/></svg>