<svg width="503" height="80" fill="none" xmlns="http://www.w3.org/2000/svg"><path d="M.094.21h502.094v79H.094z"/><path d="M64.469 15.655c-6.899 0-13.121 2.979-17.475 7.728l7.793 11.874c1.678-3.71 5.386-6.295 9.682-6.295 5.87 0 10.645 4.82 10.645 10.747s-4.775 10.748-10.645 10.748c-3.97 0-7.251-2.316-9.264-5.464C44.954 28.961 46.5 31.216 43.182 25.985c-.806-1.271-1.774-2.59-2.017-2.848-4.342-4.606-10.468-7.482-17.247-7.482C10.782 15.655.094 26.446.094 39.709c0 13.263 10.688 24.054 23.824 24.054 6.934 0 13.184-3.006 17.54-7.797l-7.74-12.063c-1.622 3.849-5.403 6.554-9.8 6.554-5.87 0-10.645-4.821-10.645-10.748 0-5.926 4.775-10.748 10.645-10.748 3.915 0 7.236 2.214 9.192 5.339 8.042 12.83 8.79 13.826 12.27 19.281.897 1.405 2.346 3.235 2.82 3.683 4.26 4.027 9.983 6.5 16.269 6.5 13.136 0 23.824-10.792 23.824-24.055S77.605 15.655 64.469 15.655Z" fill="#86D0F8"/><path d="M110.829 65.21V18.274h8.568v46.934h-8.568Zm16.902 0V30.937h7.749v6.74l-.63-1.197c.798-2.058 2.1-3.611 3.906-4.661 1.848-1.092 3.99-1.638 6.426-1.638 2.52 0 4.746.546 6.678 1.638a11.538 11.538 0 0 1 4.599 4.599c1.092 1.931 1.638 4.178 1.638 6.74v22.05h-8.253V45.112c0-1.512-.294-2.814-.882-3.906-.588-1.092-1.407-1.931-2.457-2.52-1.008-.63-2.205-.944-3.591-.944-1.344 0-2.541.315-3.591.945-1.05.588-1.869 1.428-2.457 2.52-.588 1.091-.882 2.393-.882 3.905V65.21h-8.253Zm41.314 0V38.308h-6.048v-7.371h6.048v-1.134c0-2.604.525-4.81 1.575-6.615a10.736 10.736 0 0 1 4.536-4.221c1.932-.966 4.221-1.45 6.867-1.45.504 0 1.049.043 1.637.127.63.042 1.155.105 1.575.189v7.119a6.11 6.11 0 0 0-1.197-.126 7.642 7.642 0 0 0-.945-.063c-1.847 0-3.275.42-4.283 1.26-1.008.798-1.512 2.058-1.512 3.78v1.134h14.993v7.37h-14.993V65.21h-8.253Zm20.159 0V30.937h8.316v34.271h-8.316Zm15.185 0V30.937h7.749v6.74l-.63-1.197c.798-2.058 2.1-3.611 3.906-4.661 1.848-1.092 3.99-1.638 6.426-1.638 2.519 0 4.745.546 6.677 1.638a11.538 11.538 0 0 1 4.599 4.599c1.092 1.931 1.638 4.178 1.638 6.74v22.05h-8.253V45.112c0-1.512-.294-2.814-.882-3.906-.588-1.092-1.407-1.931-2.456-2.52-1.008-.63-2.205-.944-3.591-.944-1.344 0-2.541.315-3.591.945-1.05.588-1.869 1.428-2.457 2.52-.588 1.091-.882 2.393-.882 3.905V65.21h-8.253Zm37.344 0V30.937h8.253v34.271h-8.253Zm0-38.115v-8.82h8.253v8.82h-8.253Zm12.786 38.114 11.97-17.199-12.033-17.072h9.702l9.387 13.86h-4.347l9.387-13.86h9.639l-11.97 17.072 11.907 17.2h-9.639l-9.261-13.798h4.221l-9.261 13.797h-9.702Z" fill="#fff"/><path d="M307.293 16.103V64.21" stroke="#fff" stroke-width=".916"/><path d="m331.604 35.21-6.163-17.068h2.406l5.223 15.005h-.481l5.223-15.005h2.406l-6.14 17.067h-2.474Zm10.767 0V18.141h6.025c1.13 0 2.123.214 2.978.642a4.724 4.724 0 0 1 1.993 1.832c.489.794.733 1.726.733 2.795 0 1.207-.305 2.23-.916 3.07-.611.84-1.436 1.443-2.474 1.81l3.963 6.918h-2.612l-4.169-7.4 1.489.871h-4.765v6.53h-2.245Zm2.245-8.592h3.849c.672 0 1.26-.13 1.764-.39.504-.259.893-.633 1.168-1.122.29-.488.435-1.053.435-1.695 0-.657-.145-1.222-.435-1.695a2.762 2.762 0 0 0-1.168-1.123c-.504-.26-1.092-.39-1.764-.39h-3.849v6.415Zm14.829 11.34 7.697-18.877h2.405l-7.697 18.877h-2.405Zm14.476-2.749 6.117-17.067h2.657l6.117 17.067h-2.405l-1.398-4.009h-7.285l-1.397 4.01h-2.406Zm4.513-6.07h5.865l-3.253-9.37h.641l-3.253 9.37Zm12.529 6.07V18.142h6.025c1.13 0 2.123.214 2.978.642a4.73 4.73 0 0 1 1.993 1.832c.489.794.733 1.726.733 2.795 0 1.207-.305 2.23-.916 3.07-.611.84-1.436 1.443-2.475 1.81l3.964 6.918h-2.612l-4.169-7.4 1.489.871h-4.765v6.53h-2.245Zm2.245-8.59h3.848c.672 0 1.26-.13 1.764-.39s.894-.634 1.169-1.123c.29-.488.435-1.053.435-1.695 0-.657-.145-1.222-.435-1.695a2.764 2.764 0 0 0-1.169-1.123c-.504-.26-1.092-.39-1.764-.39h-3.848v6.415Zm-66.117 37.59V47.142h5.59c1.725 0 3.23.351 4.513 1.054a7.36 7.36 0 0 1 2.978 2.978c.702 1.268 1.054 2.764 1.054 4.49 0 1.71-.352 3.207-1.054 4.49a7.51 7.51 0 0 1-2.978 3.001c-1.283.703-2.788 1.054-4.513 1.054h-5.59Zm2.245-2.062h3.368c1.267 0 2.359-.267 3.276-.801a5.452 5.452 0 0 0 2.153-2.245c.504-.978.756-2.123.756-3.437 0-1.328-.26-2.474-.779-3.436a5.305 5.305 0 0 0-2.153-2.222c-.917-.535-2.001-.802-3.253-.802h-3.368v12.943Zm14.735 2.062V47.142h11.111v2.062h-8.866v5.406h8.408v2.062h-8.408v5.475h8.866v2.062h-11.111Zm18.406 0-6.162-17.067h2.405l5.223 15.005h-.481l5.223-15.005h2.406l-6.14 17.067h-2.474Zm10.767 0V47.142h11.111v2.062h-8.866v5.406h8.408v2.062h-8.408v5.475h8.866v2.062h-11.111Zm13.893 0V47.142h2.245v15.005h7.491v2.062h-9.736Zm19.968.275a8.93 8.93 0 0 1-3.391-.641 8.6 8.6 0 0 1-2.772-1.856 8.72 8.72 0 0 1-1.832-2.795c-.443-1.084-.665-2.26-.665-3.528 0-1.283.222-2.459.665-3.528a8.72 8.72 0 0 1 1.832-2.795 8.352 8.352 0 0 1 2.75-1.832c1.053-.428 2.191-.642 3.413-.642s2.352.222 3.39.665a8.044 8.044 0 0 1 2.75 1.832 8.268 8.268 0 0 1 1.855 2.772c.458 1.07.687 2.245.687 3.528 0 1.268-.229 2.444-.687 3.528a8.522 8.522 0 0 1-1.855 2.795 8.327 8.327 0 0 1-2.75 1.856c-1.038.427-2.168.641-3.39.641Zm0-2.085c.947 0 1.81-.168 2.589-.504a6.167 6.167 0 0 0 2.016-1.443 6.523 6.523 0 0 0 1.328-2.153 7.198 7.198 0 0 0 .481-2.635c0-.931-.16-1.802-.481-2.611a6.272 6.272 0 0 0-1.328-2.131 5.752 5.752 0 0 0-2.016-1.443c-.779-.352-1.642-.527-2.589-.527-.932 0-1.787.175-2.566.527a5.99 5.99 0 0 0-2.039 1.443 6.772 6.772 0 0 0-1.328 2.13 7.02 7.02 0 0 0-.482 2.612c0 .932.161 1.81.482 2.635.32.81.763 1.527 1.328 2.153a6.437 6.437 0 0 0 2.039 1.443c.779.336 1.634.504 2.566.504Zm11.957 1.81V47.142h6.025c1.13 0 2.123.214 2.978.641a4.724 4.724 0 0 1 1.993 1.833c.489.794.733 1.726.733 2.795 0 1.07-.244 2-.733 2.795-.473.779-1.138 1.39-1.993 1.833-.84.427-1.833.641-2.978.641h-3.78v6.53h-2.245Zm2.245-8.59h3.849c.687 0 1.282-.13 1.786-.39s.894-.634 1.169-1.123c.275-.488.412-1.053.412-1.695 0-.657-.137-1.222-.412-1.695a2.764 2.764 0 0 0-1.169-1.123c-.504-.26-1.099-.39-1.786-.39h-3.849v6.415Zm12.52 8.59V47.142h2.062l6.392 9.095h-1.054l6.346-9.095h2.061V64.21h-2.268V49.983l.802.252-6.346 8.934h-.183l-6.277-8.934.71-.252v14.226h-2.245Zm19.598 0V47.142h11.111v2.062h-8.866v5.406h8.408v2.062h-8.408v5.475h8.866v2.062h-11.111Zm13.893 0V47.142h1.878l9.805 13.791-.847.092V47.142h2.268V64.21h-1.879l-9.759-13.883.779-.091v13.974h-2.245Zm19.891 0V49.204h-4.627v-2.062h11.454v2.062h-4.559v15.005h-2.268Z" fill="#fff"/></svg>