<svg width="443" height="80" fill="none" xmlns="http://www.w3.org/2000/svg"><path d="M.152.473h442.152v79H.152z"/><path d="M64.528 15.919c-6.9 0-13.121 2.978-17.476 7.728l7.794 11.873c1.678-3.71 5.386-6.295 9.682-6.295 5.87 0 10.644 4.821 10.644 10.748s-4.775 10.748-10.644 10.748c-3.97 0-7.252-2.316-9.264-5.464C45.012 29.225 46.558 31.48 43.241 26.25c-.806-1.272-1.774-2.59-2.018-2.848-4.341-4.606-10.467-7.482-17.247-7.482C10.84 15.919.152 26.709.152 39.973c0 13.263 10.688 24.054 23.824 24.054 6.934 0 13.184-3.007 17.541-7.797l-7.74-12.063c-1.622 3.849-5.404 6.554-9.8 6.554-5.87 0-10.646-4.821-10.646-10.748s4.775-10.748 10.645-10.748c3.916 0 7.236 2.214 9.193 5.338 8.042 12.831 8.79 13.826 12.269 19.282.897 1.405 2.347 3.235 2.82 3.683 4.261 4.027 9.984 6.5 16.27 6.5 13.135 0 23.823-10.792 23.823-24.055S77.663 15.919 64.528 15.919Z" fill="#3649F1"/><path d="M110.888 65.473V18.538h8.567v46.935h-8.567Zm16.902 0V31.2h7.749v6.741l-.63-1.197c.798-2.058 2.1-3.612 3.906-4.662 1.848-1.092 3.99-1.638 6.426-1.638 2.52 0 4.746.546 6.678 1.638a11.539 11.539 0 0 1 4.599 4.6c1.092 1.931 1.638 4.178 1.638 6.74v22.05h-8.253V45.376c0-1.512-.294-2.814-.882-3.906-.588-1.092-1.407-1.932-2.457-2.52-1.008-.63-2.205-.945-3.591-.945-1.344 0-2.541.315-3.591.945-1.05.588-1.869 1.428-2.457 2.52-.588 1.092-.882 2.394-.882 3.906v20.097h-8.253Zm41.313 0v-26.9h-6.048V31.2h6.048v-1.134c0-2.604.525-4.809 1.575-6.615a10.736 10.736 0 0 1 4.536-4.22c1.932-.966 4.221-1.45 6.867-1.45.504 0 1.05.043 1.638.127.63.042 1.155.105 1.575.189v7.118a6.11 6.11 0 0 0-1.197-.126 7.642 7.642 0 0 0-.945-.063c-1.848 0-3.276.42-4.284 1.26-1.008.798-1.512 2.058-1.512 3.78v1.134h14.994v7.371h-14.994v26.9h-8.253Zm20.16 0V31.2h8.316v34.272h-8.316Zm15.184 0V31.2h7.749v6.741l-.63-1.197c.798-2.058 2.1-3.612 3.906-4.662 1.848-1.092 3.99-1.638 6.426-1.638 2.52 0 4.746.546 6.678 1.638a11.539 11.539 0 0 1 4.599 4.6c1.092 1.931 1.638 4.178 1.638 6.74v22.05h-8.253V45.376c0-1.512-.294-2.814-.882-3.906-.588-1.092-1.407-1.932-2.457-2.52-1.008-.63-2.205-.945-3.591-.945-1.344 0-2.541.315-3.591.945-1.05.588-1.869 1.428-2.457 2.52-.588 1.092-.882 2.394-.882 3.906v20.097h-8.253Zm37.345 0V31.2h8.253v34.272h-8.253Zm0-38.115v-8.82h8.253v8.82h-8.253Zm12.785 38.115 11.97-17.199-12.033-17.073h9.702l9.387 13.86h-4.347l9.387-13.86h9.639l-11.97 17.073 11.907 17.199h-9.639l-9.261-13.797h4.221l-9.261 13.797h-9.702Z" fill="#fff"/><path d="M307.352 15.918v48.109" stroke="#fff" stroke-width=".916"/><path d="M335.087 35.748c-1.207 0-2.322-.214-3.345-.642a7.943 7.943 0 0 1-2.657-1.855 8.766 8.766 0 0 1-1.764-2.795c-.413-1.07-.619-2.238-.619-3.505 0-1.283.206-2.46.619-3.528.412-1.07.992-2 1.741-2.795a7.67 7.67 0 0 1 2.657-1.833c1.023-.443 2.138-.664 3.345-.664 1.176 0 2.23.206 3.161.619.947.412 1.741.946 2.383 1.603.657.657 1.122 1.36 1.397 2.108l-2.016.985c-.397-.993-1.015-1.78-1.855-2.36-.84-.58-1.864-.87-3.07-.87-1.191 0-2.253.282-3.184.847-.917.565-1.635 1.352-2.154 2.36-.519 1.008-.779 2.184-.779 3.528 0 1.328.26 2.497.779 3.505.535 1.008 1.26 1.794 2.176 2.36.932.565 1.993.847 3.185.847 1.038 0 1.978-.221 2.818-.664a5.13 5.13 0 0 0 1.993-1.833c.488-.779.733-1.68.733-2.703v-1.054l1.031.962h-6.598v-1.947h7.835v1.512c0 1.191-.207 2.268-.619 3.23a7.427 7.427 0 0 1-1.695 2.474 7.66 7.66 0 0 1-2.497 1.558 8.24 8.24 0 0 1-3.001.55Zm9.15-.275 6.117-17.067h2.657l6.117 17.067h-2.405l-1.398-4.01h-7.285l-1.397 4.01h-2.406Zm4.513-6.07h5.865l-3.253-9.37h.641l-3.253 9.37Zm12.529 6.07V18.406h2.061l6.392 9.095h-1.054l6.346-9.095h2.062v17.067h-2.268V21.247l.801.252-6.345 8.934h-.184l-6.277-8.934.711-.252v14.226h-2.245Zm19.597 0V18.406h2.245v17.067h-2.245Zm6.041 0V18.406h1.878l9.805 13.79-.847.093V18.406h2.268v17.067h-1.879l-9.759-13.883.779-.091v13.974h-2.245Zm24.794.275c-1.207 0-2.322-.214-3.345-.642a7.957 7.957 0 0 1-2.658-1.855 8.8 8.8 0 0 1-1.764-2.795c-.412-1.07-.618-2.238-.618-3.505 0-1.283.206-2.46.618-3.528.413-1.07.993-2 1.741-2.795a7.683 7.683 0 0 1 2.658-1.833c1.023-.443 2.138-.664 3.345-.664 1.176 0 2.229.206 3.161.619.947.412 1.741.946 2.383 1.603.656.657 1.122 1.36 1.397 2.108l-2.016.985c-.397-.993-1.016-1.78-1.856-2.36-.84-.58-1.863-.87-3.069-.87-1.192 0-2.253.282-3.185.847-.916.565-1.634 1.352-2.153 2.36-.519 1.008-.779 2.184-.779 3.528 0 1.328.26 2.497.779 3.505.534 1.008 1.26 1.794 2.176 2.36.932.565 1.993.847 3.185.847 1.038 0 1.977-.221 2.817-.664a5.123 5.123 0 0 0 1.993-1.833c.489-.779.733-1.68.733-2.703v-1.054l1.031.962h-6.597v-1.947h7.834v1.512c0 1.191-.206 2.268-.618 3.23a7.442 7.442 0 0 1-1.695 2.474 7.671 7.671 0 0 1-2.497 1.558 8.244 8.244 0 0 1-3.001.55Z" fill="#fff"/></svg>