<svg width="443" height="79" fill="none" xmlns="http://www.w3.org/2000/svg"><path d="M64.528 15.446c-6.9 0-13.121 2.978-17.476 7.728l7.794 11.873c1.678-3.71 5.386-6.295 9.682-6.295 5.87 0 10.644 4.822 10.644 10.748 0 5.927-4.775 10.748-10.644 10.748-3.97 0-7.252-2.316-9.264-5.464-10.252-16.032-8.706-13.777-12.023-19.008-.806-1.271-1.774-2.59-2.018-2.848-4.341-4.606-10.467-7.482-17.247-7.482C10.84 15.446.152 26.237.152 39.5c0 13.263 10.688 24.054 23.824 24.054 6.934 0 13.184-3.006 17.541-7.797l-7.74-12.063c-1.622 3.849-5.404 6.554-9.8 6.554-5.87 0-10.646-4.821-10.646-10.748 0-5.926 4.775-10.748 10.645-10.748 3.916 0 7.236 2.214 9.193 5.338 8.042 12.831 8.79 13.826 12.269 19.282.897 1.405 2.347 3.235 2.82 3.683 4.261 4.027 9.984 6.5 16.27 6.5 13.135 0 23.823-10.792 23.823-24.055S77.663 15.446 64.528 15.446ZM110.888 65V18.066h8.567V65h-8.567Zm16.902 0V30.728h7.749v6.741l-.63-1.197c.798-2.058 2.1-3.612 3.906-4.662 1.848-1.092 3.99-1.638 6.426-1.638 2.52 0 4.746.546 6.678 1.638a11.539 11.539 0 0 1 4.599 4.6c1.092 1.931 1.638 4.178 1.638 6.74V65h-8.253V44.903c0-1.512-.294-2.814-.882-3.906-.588-1.092-1.407-1.932-2.457-2.52-1.008-.63-2.205-.945-3.591-.945-1.344 0-2.541.315-3.591.945-1.05.588-1.869 1.428-2.457 2.52-.588 1.092-.882 2.394-.882 3.906V65h-8.253Zm41.313 0V38.1h-6.048v-7.372h6.048v-1.134c0-2.604.525-4.809 1.575-6.614a10.736 10.736 0 0 1 4.536-4.221c1.932-.966 4.221-1.45 6.867-1.45.504 0 1.05.043 1.638.127.63.042 1.155.105 1.575.189v7.119a6.11 6.11 0 0 0-1.197-.127 7.642 7.642 0 0 0-.945-.063c-1.848 0-3.276.42-4.284 1.26-1.008.798-1.512 2.058-1.512 3.78v1.134h14.994V38.1h-14.994V65h-8.253Zm20.16 0V30.728h8.316V65h-8.316Zm15.184 0V30.728h7.749v6.741l-.63-1.197c.798-2.058 2.1-3.612 3.906-4.662 1.848-1.092 3.99-1.638 6.426-1.638 2.52 0 4.746.546 6.678 1.638a11.539 11.539 0 0 1 4.599 4.6c1.092 1.931 1.638 4.178 1.638 6.74V65h-8.253V44.903c0-1.512-.294-2.814-.882-3.906-.588-1.092-1.407-1.932-2.457-2.52-1.008-.63-2.205-.945-3.591-.945-1.344 0-2.541.315-3.591.945-1.05.588-1.869 1.428-2.457 2.52-.588 1.092-.882 2.394-.882 3.906V65h-8.253Zm37.345 0V30.728h8.253V65h-8.253Zm0-38.115v-8.82h8.253v8.82h-8.253ZM254.577 65l11.97-17.199-12.033-17.073h9.702l9.387 13.86h-4.347l9.387-13.86h9.639l-11.97 17.073L288.219 65h-9.639l-9.261-13.797h4.221L264.279 65h-9.702Z" fill="#fff"/><path d="M307.352 15.445v48.109" stroke="#fff" stroke-width=".916"/><path d="M327.206 35V17.933h2.245v7.606h8.545v-7.606h2.268V35h-2.268v-7.4h-8.545V35h-2.245Zm25.002.275a8.932 8.932 0 0 1-3.391-.642 8.578 8.578 0 0 1-2.772-1.855 8.686 8.686 0 0 1-1.832-2.795c-.443-1.084-.665-2.26-.665-3.528 0-1.283.222-2.459.665-3.528a8.686 8.686 0 0 1 1.832-2.795 8.345 8.345 0 0 1 2.749-1.833c1.054-.427 2.192-.641 3.414-.641s2.352.221 3.39.664a8.037 8.037 0 0 1 2.749 1.833 8.271 8.271 0 0 1 1.856 2.772c.458 1.07.687 2.245.687 3.528 0 1.268-.229 2.444-.687 3.528a8.524 8.524 0 0 1-1.856 2.795 8.323 8.323 0 0 1-2.749 1.855c-1.038.428-2.168.642-3.39.642Zm0-2.085c.947 0 1.81-.168 2.588-.504a6.167 6.167 0 0 0 2.016-1.443 6.508 6.508 0 0 0 1.329-2.153 7.198 7.198 0 0 0 .481-2.635 7.02 7.02 0 0 0-.481-2.612 6.259 6.259 0 0 0-1.329-2.13 5.751 5.751 0 0 0-2.016-1.443c-.778-.352-1.641-.527-2.588-.527-.932 0-1.787.175-2.566.527a5.978 5.978 0 0 0-2.039 1.443 6.792 6.792 0 0 0-1.329 2.13 7.04 7.04 0 0 0-.481 2.612c0 .932.161 1.81.481 2.635a7.08 7.08 0 0 0 1.329 2.153c.58.61 1.26 1.092 2.039 1.443.779.336 1.634.504 2.566.504ZM364.164 35V17.933h2.246v15.005h7.491V35h-9.737Zm12.26 0V17.933h5.59c1.726 0 3.23.351 4.513 1.054a7.354 7.354 0 0 1 2.978 2.978c.703 1.268 1.054 2.764 1.054 4.49 0 1.71-.351 3.207-1.054 4.49a7.504 7.504 0 0 1-2.978 3.001c-1.283.703-2.787 1.054-4.513 1.054h-5.59Zm2.245-2.062h3.368c1.268 0 2.36-.267 3.276-.802a5.445 5.445 0 0 0 2.153-2.245c.504-.977.756-2.123.756-3.436 0-1.329-.259-2.474-.779-3.436a5.3 5.3 0 0 0-2.153-2.222c-.916-.535-2.001-.802-3.253-.802h-3.368v12.943ZM393.405 35V17.933h2.245V35h-2.245Zm6.04 0V17.933h1.879l9.804 13.791-.847.092V17.933h2.268V35h-1.879l-9.759-13.883.779-.091V35h-2.245Zm24.794.275c-1.207 0-2.322-.214-3.345-.642a7.943 7.943 0 0 1-2.657-1.855 8.766 8.766 0 0 1-1.764-2.795c-.413-1.07-.619-2.238-.619-3.505 0-1.283.206-2.459.619-3.528.412-1.07.992-2 1.741-2.795a7.67 7.67 0 0 1 2.657-1.833c1.023-.442 2.138-.664 3.345-.664 1.176 0 2.23.206 3.161.619.947.412 1.741.947 2.383 1.603.657.657 1.122 1.36 1.397 2.108l-2.016.985c-.397-.993-1.015-1.78-1.855-2.36-.84-.58-1.864-.87-3.07-.87-1.191 0-2.253.282-3.184.847-.917.565-1.635 1.352-2.154 2.36-.519 1.008-.779 2.184-.779 3.528 0 1.329.26 2.497.779 3.505.535 1.008 1.26 1.794 2.176 2.36.932.565 1.994.847 3.185.847 1.038 0 1.978-.221 2.818-.664a5.13 5.13 0 0 0 1.993-1.833c.488-.779.733-1.68.733-2.703v-1.054l1.031.962h-6.598v-1.947h7.835v1.512c0 1.191-.206 2.268-.619 3.23a7.427 7.427 0 0 1-1.695 2.474 7.66 7.66 0 0 1-2.497 1.558 8.24 8.24 0 0 1-3.001.55Zm-89.152 29c-1.207 0-2.322-.214-3.345-.642a7.943 7.943 0 0 1-2.657-1.855 8.766 8.766 0 0 1-1.764-2.795c-.413-1.07-.619-2.237-.619-3.505 0-1.283.206-2.459.619-3.528.412-1.07.992-2 1.741-2.795a7.67 7.67 0 0 1 2.657-1.833c1.023-.443 2.138-.664 3.345-.664 1.176 0 2.23.206 3.161.619.947.412 1.741.947 2.383 1.603.657.657 1.122 1.36 1.397 2.108l-2.016.985c-.397-.993-1.015-1.78-1.855-2.36-.84-.58-1.864-.87-3.07-.87-1.191 0-2.253.282-3.184.847-.917.565-1.635 1.352-2.154 2.36-.519 1.008-.779 2.184-.779 3.528 0 1.329.26 2.497.779 3.505.535 1.008 1.26 1.795 2.176 2.36.932.565 1.993.847 3.185.847 1.038 0 1.978-.221 2.818-.664a5.13 5.13 0 0 0 1.993-1.833c.488-.779.733-1.68.733-2.703v-1.054l1.031.962h-6.598v-1.947h7.835v1.512c0 1.191-.207 2.268-.619 3.23a7.427 7.427 0 0 1-1.695 2.474 7.66 7.66 0 0 1-2.497 1.558 8.24 8.24 0 0 1-3.001.55ZM345.931 64V46.933h6.025c1.131 0 2.123.214 2.979.641a4.729 4.729 0 0 1 1.993 1.833c.488.794.733 1.726.733 2.795 0 1.206-.306 2.23-.917 3.07-.611.84-1.435 1.443-2.474 1.81L358.233 64h-2.611l-4.17-7.4 1.489.871h-4.765V64h-2.245Zm2.245-8.59h3.849c.672 0 1.26-.13 1.764-.39s.894-.634 1.168-1.123c.291-.489.436-1.054.436-1.695 0-.657-.145-1.222-.436-1.695a2.756 2.756 0 0 0-1.168-1.123c-.504-.26-1.092-.39-1.764-.39h-3.849v6.415Zm20.766 8.865a8.932 8.932 0 0 1-3.391-.642 8.6 8.6 0 0 1-2.772-1.855 8.719 8.719 0 0 1-1.832-2.795c-.443-1.084-.665-2.26-.665-3.528 0-1.283.222-2.459.665-3.528a8.719 8.719 0 0 1 1.832-2.795 8.355 8.355 0 0 1 2.749-1.832c1.054-.428 2.192-.642 3.414-.642s2.352.221 3.39.664a8.028 8.028 0 0 1 2.749 1.833 8.257 8.257 0 0 1 1.856 2.772c.458 1.07.687 2.245.687 3.528 0 1.268-.229 2.444-.687 3.528a8.508 8.508 0 0 1-1.856 2.795 8.312 8.312 0 0 1-2.749 1.855c-1.038.428-2.168.642-3.39.642Zm0-2.085c.947 0 1.81-.168 2.589-.504a6.188 6.188 0 0 0 2.016-1.443 6.522 6.522 0 0 0 1.328-2.154 7.198 7.198 0 0 0 .481-2.634 7.02 7.02 0 0 0-.481-2.612 6.272 6.272 0 0 0-1.328-2.13 5.77 5.77 0 0 0-2.016-1.443c-.779-.352-1.642-.527-2.589-.527-.932 0-1.787.175-2.566.527a5.988 5.988 0 0 0-2.039 1.443 6.792 6.792 0 0 0-1.329 2.13 7.04 7.04 0 0 0-.481 2.612c0 .932.161 1.81.481 2.635a7.08 7.08 0 0 0 1.329 2.153 6.436 6.436 0 0 0 2.039 1.443c.779.336 1.634.504 2.566.504Zm18.142 2.085c-1.237 0-2.337-.26-3.299-.779a5.738 5.738 0 0 1-2.222-2.13c-.519-.917-.779-1.955-.779-3.116V46.933h2.268v11.271c0 .779.168 1.474.504 2.085a3.781 3.781 0 0 0 1.42 1.397c.611.336 1.314.504 2.108.504s1.489-.168 2.085-.504a3.572 3.572 0 0 0 1.42-1.397c.351-.611.527-1.306.527-2.085V46.933h2.268V58.25c0 1.16-.267 2.2-.802 3.115a5.57 5.57 0 0 1-2.199 2.131c-.947.52-2.047.779-3.299.779Zm9.99-.275V46.933h6.025c1.13 0 2.122.214 2.978.641a4.729 4.729 0 0 1 1.993 1.833c.489.794.733 1.726.733 2.795s-.244 2-.733 2.795c-.474.779-1.138 1.39-1.993 1.833-.84.427-1.833.641-2.978.641h-3.78V64h-2.245Zm2.245-8.59h3.848c.688 0 1.283-.13 1.787-.39s.894-.634 1.169-1.123c.274-.489.412-1.054.412-1.695 0-.657-.138-1.222-.412-1.695a2.764 2.764 0 0 0-1.169-1.123c-.504-.26-1.099-.39-1.787-.39h-3.848v6.415Z" fill="#fff"/></svg>