<svg width="443" height="80" fill="none" xmlns="http://www.w3.org/2000/svg"><path d="M.152.868h442.152v79H.152z"/><path d="M64.528 16.314c-6.9 0-13.121 2.979-17.476 7.728l7.794 11.874c1.678-3.71 5.386-6.295 9.682-6.295 5.87 0 10.644 4.82 10.644 10.747s-4.775 10.748-10.644 10.748c-3.97 0-7.252-2.316-9.264-5.463-10.252-16.032-8.706-13.778-12.023-19.008-.806-1.272-1.774-2.59-2.018-2.849-4.341-4.606-10.467-7.482-17.247-7.482C10.84 16.314.152 27.105.152 40.368c0 13.263 10.688 24.054 23.824 24.054 6.934 0 13.184-3.006 17.541-7.797l-7.74-12.063c-1.622 3.85-5.404 6.554-9.8 6.554-5.87 0-10.646-4.821-10.646-10.748 0-5.926 4.775-10.747 10.645-10.747 3.916 0 7.236 2.213 9.193 5.338 8.042 12.83 8.79 13.826 12.269 19.281.897 1.405 2.347 3.235 2.82 3.683 4.261 4.027 9.984 6.5 16.27 6.5 13.135 0 23.823-10.792 23.823-24.055S77.663 16.314 64.528 16.314Z" fill="#FA9D02"/><path d="M110.888 65.868V18.934h8.567v46.934h-8.567Zm16.902 0V31.597h7.749v6.74l-.63-1.197c.798-2.057 2.1-3.611 3.906-4.661 1.848-1.092 3.99-1.638 6.426-1.638 2.52 0 4.746.546 6.678 1.638a11.538 11.538 0 0 1 4.599 4.599c1.092 1.931 1.638 4.178 1.638 6.74v22.05h-8.253V45.771c0-1.512-.294-2.814-.882-3.906-.588-1.092-1.407-1.931-2.457-2.52-1.008-.63-2.205-.944-3.591-.944-1.344 0-2.541.314-3.591.944-1.05.589-1.869 1.428-2.457 2.52-.588 1.092-.882 2.394-.882 3.906v20.097h-8.253Zm41.313 0v-26.9h-6.048v-7.371h6.048v-1.134c0-2.604.525-4.81 1.575-6.615a10.736 10.736 0 0 1 4.536-4.221c1.932-.966 4.221-1.45 6.867-1.45.504 0 1.05.043 1.638.127.63.042 1.155.105 1.575.189v7.119a6.11 6.11 0 0 0-1.197-.126 7.642 7.642 0 0 0-.945-.063c-1.848 0-3.276.42-4.284 1.26-1.008.798-1.512 2.058-1.512 3.78v1.134h14.994v7.37h-14.994v26.901h-8.253Zm20.16 0V31.597h8.316v34.271h-8.316Zm15.184 0V31.597h7.749v6.74l-.63-1.197c.798-2.057 2.1-3.611 3.906-4.661 1.848-1.092 3.99-1.638 6.426-1.638 2.52 0 4.746.546 6.678 1.638a11.538 11.538 0 0 1 4.599 4.599c1.092 1.931 1.638 4.178 1.638 6.74v22.05h-8.253V45.771c0-1.512-.294-2.814-.882-3.906-.588-1.092-1.407-1.931-2.457-2.52-1.008-.63-2.205-.944-3.591-.944-1.344 0-2.541.314-3.591.944-1.05.589-1.869 1.428-2.457 2.52-.588 1.092-.882 2.394-.882 3.906v20.097h-8.253Zm37.345 0V31.597h8.253v34.271h-8.253Zm0-38.114v-8.82h8.253v8.82h-8.253Zm12.785 38.114 11.97-17.199-12.033-17.072h9.702l9.387 13.86h-4.347l9.387-13.86h9.639l-11.97 17.072 11.907 17.2h-9.639l-9.261-13.798h4.221l-9.261 13.797h-9.702Z" fill="#fff"/><path d="M307.352 16.314v48.108" stroke="#fff" stroke-width=".916"/><path d="M333.071 36.143c-1.085 0-2.077-.199-2.978-.596a6.836 6.836 0 0 1-2.291-1.672 6.425 6.425 0 0 1-1.352-2.36l1.947-.801c.413 1.1 1.024 1.947 1.833 2.543.825.58 1.787.87 2.887.87.672 0 1.26-.107 1.764-.32.504-.214.893-.512 1.168-.894a2.27 2.27 0 0 0 .435-1.375c0-.717-.206-1.282-.618-1.695-.397-.427-.985-.748-1.764-.962l-3.139-.962c-1.237-.382-2.184-.985-2.841-1.81a4.437 4.437 0 0 1-.985-2.84c0-.932.222-1.75.665-2.452a4.64 4.64 0 0 1 1.878-1.672c.81-.413 1.726-.619 2.749-.619 1.024 0 1.948.183 2.772.55.84.366 1.55.863 2.131 1.49a5.77 5.77 0 0 1 1.283 2.107l-1.925.802c-.366-.963-.916-1.688-1.649-2.177-.733-.504-1.596-.756-2.589-.756-.611 0-1.153.107-1.626.32a2.39 2.39 0 0 0-1.077.894c-.244.382-.367.84-.367 1.375 0 .626.199 1.183.596 1.672.397.489 1 .863 1.81 1.123l2.863.847c1.344.413 2.36 1 3.047 1.764.688.764 1.031 1.71 1.031 2.841 0 .932-.244 1.756-.733 2.474-.473.718-1.138 1.283-1.993 1.695-.84.398-1.817.596-2.932.596Zm17.101 0a8.93 8.93 0 0 1-3.391-.641 8.6 8.6 0 0 1-2.772-1.856 8.703 8.703 0 0 1-1.832-2.795c-.443-1.084-.665-2.26-.665-3.528 0-1.283.222-2.459.665-3.528.443-1.069 1.053-2 1.832-2.795a8.358 8.358 0 0 1 2.749-1.832c1.054-.428 2.192-.642 3.414-.642s2.352.222 3.39.665a8.03 8.03 0 0 1 2.749 1.832 8.256 8.256 0 0 1 1.856 2.772c.458 1.07.687 2.245.687 3.528 0 1.268-.229 2.444-.687 3.528a8.509 8.509 0 0 1-1.856 2.795 8.312 8.312 0 0 1-2.749 1.856c-1.038.427-2.168.641-3.39.641Zm0-2.085c.947 0 1.81-.168 2.589-.504a6.189 6.189 0 0 0 2.016-1.443 6.523 6.523 0 0 0 1.328-2.153 7.198 7.198 0 0 0 .481-2.635c0-.931-.16-1.802-.481-2.611a6.271 6.271 0 0 0-1.328-2.131 5.77 5.77 0 0 0-2.016-1.443c-.779-.352-1.642-.527-2.589-.527-.932 0-1.787.175-2.566.527a5.99 5.99 0 0 0-2.039 1.443 6.792 6.792 0 0 0-1.329 2.13c-.32.81-.481 1.68-.481 2.612 0 .932.161 1.81.481 2.635.321.81.764 1.527 1.329 2.153a6.437 6.437 0 0 0 2.039 1.443c.779.336 1.634.504 2.566.504Zm19.814 2.085c-1.206 0-2.321-.214-3.344-.641a8.27 8.27 0 0 1-2.658-1.856 8.49 8.49 0 0 1-1.741-2.795c-.412-1.069-.618-2.237-.618-3.505 0-1.283.206-2.459.618-3.528.413-1.069.993-2 1.741-2.795a7.676 7.676 0 0 1 2.658-1.832c1.023-.443 2.138-.665 3.344-.665 1.176 0 2.23.206 3.162.619.947.412 1.741.947 2.382 1.603.657.657 1.123 1.36 1.398 2.108l-2.062.94a5.148 5.148 0 0 0-1.856-2.292c-.84-.595-1.848-.893-3.024-.893-1.191 0-2.252.282-3.184.848-.916.565-1.634 1.351-2.153 2.36-.52 1.007-.779 2.183-.779 3.527 0 1.329.259 2.497.779 3.505.519 1.008 1.237 1.795 2.153 2.36.932.565 1.993.847 3.184.847 1.176 0 2.184-.29 3.024-.87a5.293 5.293 0 0 0 1.856-2.314l2.062.94c-.275.748-.741 1.45-1.398 2.107-.641.657-1.435 1.191-2.382 1.604-.932.412-1.986.618-3.162.618Zm9.995-.275V18.801h2.245v17.067h-2.245Zm4.391 0 6.117-17.067h2.657l6.117 17.067h-2.405l-1.398-4.009h-7.285l-1.397 4.01h-2.406Zm4.513-6.07h5.865l-3.253-9.37h.642l-3.254 9.37Zm12.529 6.07V18.801h2.245v15.005h7.491v2.062h-9.736Z" fill="#fff"/></svg>