<svg width="476" height="80" fill="none" xmlns="http://www.w3.org/2000/svg"><path d="M.094.674h475.094v79H.094z"/><path d="M64.469 16.12c-6.899 0-13.121 2.979-17.475 7.728l7.793 11.874c1.678-3.71 5.386-6.295 9.682-6.295 5.87 0 10.645 4.82 10.645 10.747s-4.775 10.748-10.645 10.748c-3.97 0-7.251-2.316-9.264-5.463C44.954 29.427 46.5 31.68 43.182 26.45c-.806-1.271-1.774-2.59-2.017-2.848-4.342-4.606-10.468-7.482-17.247-7.482C10.782 16.12.094 26.911.094 40.174c0 13.263 10.688 24.054 23.824 24.054 6.934 0 13.184-3.006 17.54-7.797l-7.74-12.063c-1.622 3.85-5.403 6.554-9.8 6.554-5.87 0-10.645-4.821-10.645-10.748 0-5.926 4.775-10.747 10.645-10.747 3.915 0 7.236 2.213 9.192 5.338 8.042 12.83 8.79 13.826 12.27 19.281.897 1.405 2.346 3.235 2.82 3.683 4.26 4.028 9.983 6.5 16.269 6.5 13.136 0 23.824-10.792 23.824-24.055S77.605 16.12 64.469 16.12Z" fill="#BABBC9"/><path d="M110.829 65.674V18.74h8.568v46.934h-8.568Zm16.902 0V31.403h7.749v6.74l-.63-1.196c.798-2.058 2.1-3.612 3.906-4.662 1.848-1.092 3.99-1.638 6.426-1.638 2.52 0 4.746.546 6.678 1.638a11.538 11.538 0 0 1 4.599 4.599c1.092 1.932 1.638 4.179 1.638 6.74v22.05h-8.253V45.578c0-1.512-.294-2.814-.882-3.906-.588-1.092-1.407-1.932-2.457-2.52-1.008-.63-2.205-.945-3.591-.945-1.344 0-2.541.315-3.591.945-1.05.588-1.869 1.428-2.457 2.52-.588 1.092-.882 2.394-.882 3.906v20.096h-8.253Zm41.314 0v-26.9h-6.048v-7.371h6.048v-1.134c0-2.604.525-4.81 1.575-6.615a10.735 10.735 0 0 1 4.536-4.221c1.932-.966 4.221-1.45 6.867-1.45.504 0 1.049.043 1.637.127.63.042 1.155.105 1.575.189v7.119a6.11 6.11 0 0 0-1.197-.126 7.642 7.642 0 0 0-.945-.063c-1.847 0-3.275.42-4.283 1.26-1.008.798-1.512 2.058-1.512 3.78v1.134h14.993v7.37h-14.993v26.901h-8.253Zm20.159 0V31.403h8.316v34.271h-8.316Zm15.185 0V31.403h7.749v6.74l-.63-1.196c.798-2.058 2.1-3.612 3.906-4.662 1.848-1.092 3.99-1.638 6.426-1.638 2.519 0 4.745.546 6.677 1.638a11.538 11.538 0 0 1 4.599 4.599c1.092 1.932 1.638 4.179 1.638 6.74v22.05h-8.253V45.578c0-1.512-.294-2.814-.882-3.906-.588-1.092-1.407-1.932-2.456-2.52-1.008-.63-2.205-.945-3.591-.945-1.344 0-2.541.315-3.591.945-1.05.588-1.869 1.428-2.457 2.52-.588 1.092-.882 2.394-.882 3.906v20.096h-8.253Zm37.344 0V31.403h8.253v34.271h-8.253Zm0-38.114v-8.82h8.253v8.82h-8.253Zm12.786 38.114 11.97-17.199-12.033-17.072h9.702l9.387 13.86h-4.347l9.387-13.86h9.639l-11.97 17.072 11.907 17.2h-9.639l-9.261-13.797h4.221l-9.261 13.796h-9.702Z" fill="#fff"/><path d="M307.293 15.752V63.86" stroke="#fff" stroke-width=".916"/><path d="M335.246 35.95a8.93 8.93 0 0 1-3.39-.642 8.58 8.58 0 0 1-2.772-1.856 8.705 8.705 0 0 1-1.833-2.795c-.443-1.084-.664-2.26-.664-3.528 0-1.283.221-2.459.664-3.528.443-1.069 1.054-2 1.833-2.794a8.335 8.335 0 0 1 2.749-1.833c1.054-.428 2.192-.642 3.413-.642 1.222 0 2.352.222 3.391.665a8.037 8.037 0 0 1 2.749 1.832 8.27 8.27 0 0 1 1.856 2.772c.458 1.07.687 2.245.687 3.528 0 1.268-.229 2.444-.687 3.528a8.524 8.524 0 0 1-1.856 2.795 8.324 8.324 0 0 1-2.749 1.856c-1.039.427-2.169.641-3.391.641Zm0-2.086c.947 0 1.81-.167 2.589-.503a6.166 6.166 0 0 0 2.016-1.444 6.541 6.541 0 0 0 1.329-2.153 7.198 7.198 0 0 0 .481-2.635 7.02 7.02 0 0 0-.481-2.611 6.29 6.29 0 0 0-1.329-2.13 5.751 5.751 0 0 0-2.016-1.444c-.779-.351-1.642-.527-2.589-.527-.931 0-1.786.176-2.565.527a5.978 5.978 0 0 0-2.039 1.443 6.792 6.792 0 0 0-1.329 2.13 7.02 7.02 0 0 0-.481 2.612c0 .932.16 1.81.481 2.635a7.08 7.08 0 0 0 1.329 2.153c.58.611 1.26 1.092 2.039 1.444.779.336 1.634.504 2.565.504Zm4.605 3.872-5.819-8.888h2.474l5.842 8.888h-2.497Zm13.538-1.787c-1.237 0-2.337-.26-3.299-.779a5.73 5.73 0 0 1-2.222-2.13c-.52-.917-.779-1.955-.779-3.116V18.607h2.268v11.271c0 .78.168 1.474.504 2.085a3.774 3.774 0 0 0 1.42 1.398c.611.336 1.313.504 2.108.504.794 0 1.489-.169 2.084-.505a3.574 3.574 0 0 0 1.421-1.397c.351-.61.527-1.306.527-2.085v-11.27h2.268v11.316c0 1.16-.268 2.2-.802 3.116a5.578 5.578 0 0 1-2.2 2.13c-.946.52-2.046.78-3.298.78Zm7.892-.275 6.117-17.067h2.657l6.117 17.067h-2.405l-1.398-4.009h-7.285l-1.397 4.01h-2.406Zm4.513-6.07h5.865l-3.253-9.37h.641l-3.253 9.37Zm12.529 6.07V18.607h2.245v15.005h7.491v2.062h-9.736Zm12.259 0V18.607h2.245v17.067h-2.245Zm9.019 0V20.67h-4.628v-2.062h11.455v2.062h-4.559v15.005h-2.268Zm13.252 0v-7.812l-5.911-9.255h2.543l4.948 7.766h-.916l4.926-7.766h2.542l-5.864 9.255v7.812h-2.268Zm-87.412 29 6.117-17.067h2.658l6.116 17.067h-2.405l-1.398-4.009h-7.285l-1.397 4.01h-2.406Zm4.513-6.07h5.865l-3.253-9.37h.642l-3.254 9.37Zm18.17 6.345c-1.085 0-2.077-.198-2.978-.595a6.826 6.826 0 0 1-2.291-1.673 6.41 6.41 0 0 1-1.352-2.36l1.947-.801c.413 1.1 1.024 1.947 1.833 2.543.825.58 1.787.87 2.887.87.672 0 1.259-.107 1.763-.32.504-.214.894-.512 1.169-.894a2.27 2.27 0 0 0 .435-1.375c0-.717-.206-1.282-.618-1.695-.398-.427-.986-.748-1.764-.962l-3.139-.962c-1.237-.382-2.184-.985-2.841-1.81a4.437 4.437 0 0 1-.985-2.84c0-.932.222-1.75.665-2.452a4.64 4.64 0 0 1 1.878-1.672c.81-.413 1.726-.619 2.749-.619 1.024 0 1.947.184 2.772.55.84.367 1.55.863 2.131 1.49a5.77 5.77 0 0 1 1.283 2.107l-1.925.802c-.366-.962-.916-1.688-1.649-2.177-.733-.504-1.596-.756-2.589-.756-.611 0-1.153.107-1.626.321a2.385 2.385 0 0 0-1.077.894c-.244.381-.367.84-.367 1.374 0 .626.199 1.184.596 1.672.397.49 1 .863 1.81 1.123l2.863.848c1.344.412 2.36 1 3.047 1.764.688.763 1.031 1.71 1.031 2.84 0 .932-.244 1.757-.733 2.474-.473.718-1.138 1.283-1.993 1.696-.84.397-1.817.595-2.932.595Zm14.81 0c-1.084 0-2.077-.198-2.978-.595a6.836 6.836 0 0 1-2.291-1.673 6.424 6.424 0 0 1-1.352-2.36l1.947-.801c.413 1.1 1.024 1.947 1.833 2.543.825.58 1.787.87 2.887.87.672 0 1.26-.107 1.764-.32.504-.214.893-.512 1.168-.894a2.27 2.27 0 0 0 .435-1.375c0-.717-.206-1.282-.618-1.695-.397-.427-.985-.748-1.764-.962l-3.139-.962c-1.237-.382-2.184-.985-2.84-1.81a4.431 4.431 0 0 1-.985-2.84c0-.932.221-1.75.664-2.452a4.64 4.64 0 0 1 1.878-1.672c.81-.413 1.726-.619 2.749-.619 1.024 0 1.948.184 2.772.55.84.367 1.551.863 2.131 1.49a5.77 5.77 0 0 1 1.283 2.107l-1.925.802c-.366-.962-.916-1.688-1.649-2.177-.733-.504-1.596-.756-2.589-.756-.611 0-1.153.107-1.626.321a2.39 2.39 0 0 0-1.077.894c-.244.381-.366.84-.366 1.374 0 .626.198 1.184.595 1.672.397.49 1.001.863 1.81 1.123l2.864.848c1.344.412 2.359 1 3.046 1.764.688.763 1.031 1.71 1.031 2.84 0 .932-.244 1.757-.733 2.474-.473.718-1.138 1.283-1.993 1.696-.84.397-1.817.595-2.932.595Zm15.131 0c-1.237 0-2.337-.26-3.299-.779a5.73 5.73 0 0 1-2.222-2.13c-.519-.917-.779-1.955-.779-3.116V47.607h2.268v11.271c0 .78.168 1.474.504 2.085a3.781 3.781 0 0 0 1.42 1.398c.611.336 1.314.504 2.108.504s1.489-.169 2.085-.505a3.578 3.578 0 0 0 1.42-1.397c.351-.61.527-1.306.527-2.085v-11.27h2.268v11.316c0 1.16-.268 2.2-.802 3.116a5.569 5.569 0 0 1-2.199 2.13c-.947.52-2.047.78-3.299.78Zm9.989-.275V47.607h6.025c1.131 0 2.123.214 2.978.642a4.726 4.726 0 0 1 1.994 1.832c.488.795.733 1.726.733 2.795 0 1.207-.306 2.23-.917 3.07-.611.84-1.435 1.443-2.474 1.81l3.963 6.918h-2.611l-4.17-7.4 1.489.871h-4.765v6.53h-2.245Zm2.245-8.59h3.849c.672 0 1.26-.13 1.764-.39s.893-.634 1.168-1.123c.291-.488.436-1.053.436-1.695 0-.656-.145-1.221-.436-1.695a2.762 2.762 0 0 0-1.168-1.122c-.504-.26-1.092-.39-1.764-.39h-3.849v6.415Zm10.961 8.59 6.116-17.067h2.658l6.117 17.067h-2.406l-1.397-4.009h-7.285l-1.398 4.01h-2.405Zm4.513-6.07h5.865l-3.254-9.37h.642l-3.253 9.37Zm12.528 6.07V47.607h1.879l9.805 13.791-.848.092V47.607h2.268v17.067h-1.879l-9.759-13.882.779-.092v13.974h-2.245Zm24.771.275c-1.207 0-2.321-.214-3.345-.641a8.267 8.267 0 0 1-2.657-1.856 8.474 8.474 0 0 1-1.741-2.795c-.413-1.069-.619-2.237-.619-3.505 0-1.283.206-2.459.619-3.528.412-1.069.993-2 1.741-2.795a7.67 7.67 0 0 1 2.657-1.832c1.024-.443 2.138-.665 3.345-.665 1.176 0 2.23.206 3.161.619.947.412 1.741.947 2.383 1.603.657.657 1.122 1.36 1.397 2.108l-2.061.94a5.154 5.154 0 0 0-1.856-2.291c-.84-.596-1.848-.894-3.024-.894-1.191 0-2.253.283-3.184.848-.917.565-1.634 1.351-2.154 2.36-.519 1.007-.779 2.183-.779 3.527 0 1.329.26 2.497.779 3.505.52 1.008 1.237 1.795 2.154 2.36.931.565 1.993.847 3.184.847 1.176 0 2.184-.29 3.024-.87a5.3 5.3 0 0 0 1.856-2.314l2.061.94c-.275.748-.74 1.45-1.397 2.107-.642.657-1.436 1.191-2.383 1.604-.931.412-1.985.618-3.161.618Zm9.995-.275V47.607h11.111v2.062h-8.866v5.407h8.408v2.061h-8.408v5.475h8.866v2.062h-11.111Z" fill="#fff"/></svg>