<svg width="160" height="29" viewBox="0 0 160 29" fill="none" xmlns="http://www.w3.org/2000/svg">
<g clip-path="url(#clip0_6990_473)">
<path d="M0.0582961 3.01385C-0.228777 1.57344 0.563825 0.359356 2.00759 0.079934C3.45135 -0.199488 4.65987 0.58429 4.94834 2.03589C5.23682 3.48748 4.42321 4.67083 2.97944 4.95723C1.53566 5.24364 0.346769 4.45288 0.0582961 3.01385ZM4.57304 23.9412L1.39424 8.05462L5.65693 7.20518L8.83573 23.0917L4.57304 23.9412Z" fill="#0DD6A8"/>
<path d="M103.227 21.2069C103.515 22.6474 102.722 23.8544 101.279 24.1409C99.835 24.4272 98.6181 23.6365 98.338 22.1849C98.0579 20.7333 98.8631 19.5513 100.307 19.2635C101.751 18.9758 102.94 19.7678 103.227 21.2069ZM98.7119 0.286621L101.892 16.1732L97.6294 17.0225L94.4492 1.13606L98.7119 0.286621Z" fill="#0DD6A8"/>
<path d="M19.5516 21.0422C17.5818 21.0422 16.0237 20.5453 14.8773 19.5515C13.7309 18.5577 13.1572 17.217 13.1562 15.5293C13.1562 13.7046 13.8098 12.2312 15.1168 11.1088C16.4237 9.98647 18.1555 9.42762 20.312 9.43228C22.028 9.43228 23.5684 9.70937 24.9333 10.2636V10.1238C24.9333 8.69041 24.5164 7.59834 23.6827 6.84764C22.849 6.09692 21.656 5.7211 20.1034 5.72017C18.8469 5.71809 17.6031 5.97195 16.4485 6.46621C16.2279 6.56292 15.9876 6.6066 15.7468 6.59379C15.5062 6.58097 15.272 6.51199 15.0629 6.39242C14.8538 6.27284 14.6758 6.10599 14.5431 5.90527C14.4104 5.70455 14.3268 5.47559 14.299 5.23677V5.20743C14.2659 4.90128 14.3258 4.59229 14.4709 4.32051C14.6159 4.04874 14.8395 3.8267 15.1125 3.68319C15.7304 3.36381 16.3794 3.10821 17.0492 2.92036C18.1898 2.59111 19.3712 2.4246 20.5586 2.42579C23.1539 2.42579 25.1405 3.09593 26.5185 4.43623C27.8965 5.77652 28.5858 7.6859 28.5868 10.1644V20.496H25.1111L25.0425 18.5205C24.4903 19.3453 23.7127 19.9949 22.8019 20.3926C21.7784 20.8411 20.6695 21.0628 19.5516 21.0422ZM20.1412 17.9574C21.5538 17.9574 22.6777 17.5355 23.5132 16.6916C24.3489 15.8477 24.8118 14.663 24.9025 13.1374C23.6153 12.6437 22.2497 12.3853 20.8708 12.3746C19.5731 12.3746 18.5765 12.6233 17.8811 13.1206C17.1856 13.618 16.8382 14.3403 16.8393 15.2876C16.8393 16.1184 17.1286 16.7704 17.7074 17.2435C18.2863 17.7167 19.0975 17.9547 20.1412 17.9574Z" fill="white"/>
<path d="M31.9023 2.98465H35.6553L35.6904 5.58467C36.9647 3.47877 39.0615 2.42581 41.9808 2.42581C43.483 2.39662 44.9625 2.79523 46.2457 3.57493C47.529 4.35464 48.5629 5.48311 49.2262 6.8281C49.9554 8.23918 50.3203 9.86914 50.3212 11.718C50.3357 13.3184 49.9665 14.8992 49.2444 16.3284C48.5489 17.7153 47.4999 18.8954 46.2028 19.7499C44.9018 20.6138 43.3699 21.0667 41.8071 21.0493C40.6076 21.0662 39.4195 20.8131 38.3315 20.3089C37.3375 19.8459 36.4943 19.1128 35.899 18.1935V28.9764H31.9023V2.98465ZM40.9725 17.4769C42.5241 17.4769 43.7984 16.9451 44.7954 15.8813C45.7925 14.8177 46.2906 13.4425 46.2897 11.7557C46.2897 10.0689 45.7972 8.68811 44.8124 7.61327C43.8274 6.53844 42.5475 6.00101 40.9725 6.00101C39.3977 6.00101 38.1177 6.53844 37.1328 7.61327C36.1478 8.68811 35.6553 10.0689 35.6553 11.7557C35.6553 13.4434 36.1535 14.8186 37.1496 15.8813C38.1457 16.9441 39.4201 17.4741 40.9725 17.4712V17.4769Z" fill="white"/>
<path d="M53.4492 2.98465H57.2022L57.2373 5.58467C58.5116 3.47877 60.6084 2.42581 63.5277 2.42581C65.0299 2.39662 66.5093 2.79523 67.7925 3.57493C69.0757 4.35464 70.1096 5.48311 70.7731 6.8281C71.5041 8.23918 71.869 9.86914 71.8681 11.718C71.8826 13.3184 71.5134 14.8992 70.7912 16.3284C70.0958 17.7153 69.0468 18.8954 67.7497 19.7499C66.4487 20.6138 64.9168 21.0667 63.354 21.0493C62.1544 21.0662 60.9663 20.8131 59.8783 20.3089C58.8843 19.8459 58.0412 19.1128 57.4459 18.1935V28.9764H53.4492V2.98465ZM62.5194 17.4712C64.0729 17.4712 65.3471 16.9394 66.3423 15.8758C67.3375 14.8121 67.8357 13.4369 67.8366 11.7501C67.8366 10.0633 67.3445 8.68253 66.3606 7.60768C65.3765 6.53285 64.0962 5.99543 62.5194 5.99543C60.9444 5.99543 59.6645 6.53285 58.6795 7.60768C57.6947 8.68253 57.2022 10.0633 57.2022 11.7501C57.2022 13.4378 57.7008 14.813 58.6978 15.8758C59.6949 16.9385 60.9688 17.4703 62.5194 17.4712Z" fill="white"/>
<path d="M80.2066 21.0422C78.2376 21.0422 76.6795 20.5453 75.5321 19.5515C74.3848 18.5577 73.8116 17.217 73.8125 15.5293C73.8125 13.7046 74.4661 12.2312 75.773 11.1088C77.08 9.98648 78.8118 9.42762 80.9683 9.43228C82.6824 9.43228 84.2227 9.70937 85.5896 10.2636V10.1238C85.5896 8.69042 85.1722 7.59835 84.3376 6.84764C83.503 6.09692 82.3099 5.72111 80.7583 5.72018C79.5018 5.71841 78.2582 5.97226 77.1033 6.46623C76.8827 6.56292 76.6424 6.60661 76.4018 6.59379C76.1611 6.58098 75.9268 6.51201 75.7177 6.39242C75.5086 6.27285 75.3307 6.10599 75.1979 5.90527C75.0652 5.70456 74.9817 5.47559 74.9538 5.23678V5.20743C74.9205 4.90159 74.98 4.59282 75.1245 4.32106C75.2691 4.04932 75.492 3.8271 75.7646 3.68319C76.3826 3.36382 77.0314 3.10821 77.7013 2.92037C78.8432 2.59085 80.0261 2.42433 81.2149 2.42579C83.8082 2.42579 85.795 3.09593 87.1748 4.43623C88.5546 5.77653 89.2435 7.68591 89.2417 10.1644V20.496H85.7674L85.6973 18.5205C85.1455 19.3456 84.3678 19.9954 83.4568 20.3927C82.4333 20.8413 81.3243 21.063 80.2066 21.0422ZM80.7975 17.9574C82.2101 17.9574 83.3336 17.5355 84.1682 16.6916C85.0027 15.8477 85.4663 14.663 85.5588 13.1374C84.2716 12.6439 82.906 12.3855 81.5271 12.3746C80.2294 12.3746 79.2333 12.6233 78.5388 13.1206C77.8442 13.618 77.4965 14.3403 77.4954 15.2876C77.4954 16.1184 77.7854 16.7704 78.365 17.2435C78.9448 17.7167 79.7557 17.9547 80.7975 17.9574Z" fill="white"/>
<path d="M126.006 18.0438C124.139 19.4786 121.994 20.8129 117.931 20.8129C112.935 20.8129 108.797 17.2894 108.797 11.6242C108.797 6.59458 112.532 2.54297 118.039 2.54297C122.202 2.54297 124.323 4.48077 125.231 5.61661L122.498 8.43318C122.12 7.93021 120.606 6.52054 118.234 6.52054C115.08 6.52054 113.264 8.70981 113.264 11.5501C113.264 14.8235 115.433 16.8368 118.234 16.8368C120.455 16.8368 121.716 16.0321 121.994 15.754V14.1921H118.941V10.5931H126.006V18.0438Z" fill="white"/>
<path d="M133.354 20.486H129.039V2.86426H133.354V20.486Z" fill="white"/>
<path d="M141.174 13.7645V20.486H136.859V2.86426H146.203V6.71608H141.181V9.93781H145.572V13.7645H141.174Z" fill="white"/>
<path d="M156.191 6.71608V20.486H151.877V6.71608H148.066V2.86426H160.002V6.71608H156.191Z" fill="white"/>
</g>
<defs>
<clipPath id="clip0_6990_473">
<rect width="160" height="29" fill="white"/>
</clipPath>
</defs>
</svg>
