<svg width="257" height="60" fill="none" xmlns="http://www.w3.org/2000/svg"><path d="M46.131 37.448c0 6.11-3.668 10.999-12.116 10.999H0V11.245h32.422c8.448 0 11.054 3.827 11.054 9.46 0 2.393-1.117 4.835-2.924 6.965 3.241 2.337 5.58 5.737 5.58 9.778ZM13.818 24.319h12.757c1.38 0 3.082 0 3.082-2.02s-1.702-2.02-3.082-2.02H13.819v4.04Zm18.495 12.067c0-1.966-1.703-1.966-3.083-1.966H13.818v3.931H29.23c1.38 0 3.083 0 3.083-1.965ZM45.937 19.37C45.937 6.455 52.95.29 69.32.29c16.37 0 23.383 6.22 23.383 19.08S85.635 38.554 69.32 38.554c-16.315 0-23.383-6.22-23.383-19.184Zm32.953 0c0-3.881-1.38-7.385-9.565-7.385-8.185 0-9.565 3.455-9.565 7.385 0 3.931 1.435 7.495 9.565 7.495 8.13 0 9.565-3.558 9.565-7.495ZM151.468 48.447H137.65v-17.7l-10.15 17.7h-9.034l-10.15-17.7v17.7H94.497V11.245h17.005l11.481 21.259 11.481-21.259h17.004v37.202ZM199.723 37.448c0 6.11-3.668 10.999-12.116 10.999h-34.015V11.245h32.422c8.448 0 11.054 3.827 11.054 9.46 0 2.393-1.117 4.835-2.924 6.965 3.241 2.337 5.579 5.737 5.579 9.778ZM167.41 24.319h12.757c1.379 0 3.082 0 3.082-2.02s-1.703-2.02-3.082-2.02H167.41v4.04Zm18.494 12.067c0-1.966-1.702-1.966-3.082-1.966H167.41v3.931h15.412c1.38 0 3.082 0 3.082-1.965Z" fill="#fff"/><path d="M199.722 29.795c0-12.915 7.013-19.08 23.383-19.08 16.37 0 23.383 6.22 23.383 19.08S239.42 48.98 223.105 48.98c-16.315 0-23.383-6.22-23.383-19.184Zm32.953 0c0-3.882-1.38-7.385-9.565-7.385-8.185 0-9.564 3.454-9.564 7.385 0 3.931 1.434 7.495 9.564 7.495s9.565-3.558 9.565-7.495ZM103.762 52.357c2.452 0 3.733.86 3.832 2.798h-2.332c-.088-.58-.537-.865-1.5-.865-1.353 0-1.577.57-1.577 1.22 0 .653.235 1.238 1.577 1.238.963 0 1.412-.295 1.5-.887h2.332c-.099 1.944-1.369 2.814-3.832 2.814-2.7 0-3.855-1.023-3.855-3.164 0-2.14 1.155-3.148 3.855-3.148v-.006ZM114.164 56.649v1.927h-6.312v-6.138h2.277v4.205h4.03l.005.006ZM118.29 58.67c-2.699 0-3.854-1.024-3.854-3.164v-3.06h2.277v3.06c0 .657.235 1.237 1.577 1.237 1.341 0 1.577-.586 1.577-1.237v-3.06h2.277v3.06c0 2.13-1.166 3.164-3.854 3.164ZM130.099 56.764c0 1.007-.602 1.812-1.998 1.812h-5.612v-6.138h5.344c1.396 0 1.823.63 1.823 1.56 0 .395-.186.8-.482 1.15.537.384.92.948.92 1.616h.005Zm-5.327-2.163h2.103c.23 0 .509 0 .509-.334s-.279-.334-.509-.334h-2.103v.668Zm3.05 1.987c0-.323-.279-.323-.509-.323h-2.541v.646h2.541c.23 0 .509 0 .509-.323ZM137.972 56.765c0 1.007-.602 1.812-1.998 1.812h-5.612V52.44h5.349c1.396 0 1.823.629 1.823 1.56 0 .394-.186.8-.481 1.15.536.383.919.947.919 1.615Zm-5.327-2.163h2.103c.23 0 .509 0 .509-.334s-.279-.334-.509-.334h-2.103v.668Zm3.05 1.987c0-.323-.279-.323-.509-.323h-2.541v.646h2.541c.23 0 .509 0 .509-.323ZM140.518 58.583h-2.278v-6.138h2.278v6.138ZM148.771 52.445v6.138h-2.978l-2.644-3.62v3.62h-2.278v-6.138h2.978l2.645 3.62v-3.62h2.277ZM152.66 55.243h3.98v3.34h-1.314l-.164-.888c-.52.603-1.325.975-2.612.975-2.261 0-3.591-1.024-3.591-3.165 0-2.14 1.33-3.148 3.854-3.148s3.734.86 3.833 2.535h-2.333c-.087-.317-.536-.602-1.5-.602-1.352 0-1.576.57-1.576 1.303 0 .734.235 1.413 1.576 1.413.876 0 1.413-.12 1.5-.537h-1.648v-1.226h-.005ZM168.43 58.581c-.542-.252-1.046-.498-1.517-.728-.859.553-1.899.816-3.235.816-2.19 0-3.269-.64-3.269-1.78 0-1.138 1.035-1.543 1.955-1.724-.422-.427-.613-.843-.613-1.314 0-1.007.919-1.49 2.666-1.49 1.473 0 2.628.483 2.628 1.402 0 .69-.69 1.14-1.867 1.517.306.159.684.35 1.133.558.208-.235.411-.509.602-.804l1.878.717a7.75 7.75 0 0 1-.613.93c.35.148.728.307 1.133.482l-.876 1.418h-.005Zm-3.619-1.79a17.804 17.804 0 0 1-1.632-.964c-.438.16-.667.318-.667.559 0 .306.333.525 1.324.525a3.8 3.8 0 0 0 .975-.12Zm-.958-2.644c0 .158.104.34.449.596.421-.147.64-.334.64-.596 0-.247-.147-.384-.525-.384s-.559.143-.559.384h-.005ZM176.937 52.357c2.453 0 3.734.86 3.833 2.798h-2.333c-.087-.58-.536-.865-1.5-.865-1.352 0-1.576.57-1.576 1.22 0 .653.235 1.238 1.576 1.238.964 0 1.413-.295 1.5-.887h2.333c-.099 1.944-1.369 2.814-3.833 2.814-2.699 0-3.854-1.023-3.854-3.164 0-2.14 1.155-3.148 3.854-3.148v-.006ZM180.946 55.505c0-2.13 1.156-3.148 3.855-3.148s3.854 1.024 3.854 3.148c0 2.125-1.166 3.165-3.854 3.165-2.689 0-3.855-1.024-3.855-3.165Zm5.437 0c0-.64-.23-1.22-1.577-1.22s-1.577.569-1.577 1.22c0 .652.236 1.238 1.577 1.238s1.577-.586 1.577-1.238ZM198.319 58.583h-2.278v-2.919l-1.675 2.919h-1.489l-1.676-2.919v2.919h-2.277v-6.138h2.803l1.894 3.504 1.895-3.504h2.803v6.138ZM208.071 58.583h-2.278v-2.919l-1.675 2.919h-1.489l-1.676-2.919v2.919h-2.277v-6.138h2.803l1.894 3.504 1.895-3.504h2.803v6.138ZM212.278 58.67c-2.699 0-3.854-1.024-3.854-3.164v-3.06h2.277v3.06c0 .657.236 1.237 1.577 1.237s1.577-.586 1.577-1.237v-3.06h2.277v3.06c0 2.13-1.166 3.164-3.854 3.164ZM224.392 52.445v6.138h-2.978l-2.644-3.62v3.62h-2.278v-6.138h2.978l2.645 3.62v-3.62h2.277ZM227.022 58.583h-2.278v-6.138h2.278v6.138ZM234.826 54.373h-2.628v4.204h-2.277v-4.204h-2.628v-1.928h7.539v1.928h-.006ZM235.008 52.445h2.628l1.631 2.278 1.632-2.278h2.628l-3.121 4.117v2.015h-2.277v-2.015l-3.121-4.117ZM59.755 59.583v-.088c0-3.931 1.38-7.386 9.565-7.386 8.184 0 9.564 3.51 9.564 7.386v.088h13.819v-.088c0-12.86-7.068-19.08-23.383-19.08-16.315 0-23.383 6.165-23.383 19.08v.088h13.818ZM249.616 4.673v1.025h-1.235v3.607h-1.288V5.698h-1.222V4.673h3.745Zm5.884 0v4.632h-1.288V6.749l-.874 2.556h-1.077l-.881-2.576v2.576h-1.287V4.673h1.557l1.163 3.009 1.136-3.009h1.551Z" fill="#fff"/></svg>