<svg width="224" height="45" fill="none" xmlns="http://www.w3.org/2000/svg"><path d="M15.08 43.937A14.937 14.937 0 0 1 4.349 39.43 15.03 15.03 0 0 1 .002 28.627c0-7.41 5.647-15.093 15.079-15.093h10.348a14.963 14.963 0 0 1 5.092-9.057 14.894 14.894 0 0 1 9.75-3.54v4.898c-3.695 0-8.677 2.415-9.867 7.714h9.86v4.898H30.13v10.195a15.03 15.03 0 0 1-4.346 10.804 14.965 14.965 0 0 1-10.703 4.49Zm0-25.505c-7.029 0-10.192 5.972-10.192 10.21a10.159 10.159 0 0 0 2.956 7.314 10.112 10.112 0 0 0 7.252 3.046 10.077 10.077 0 0 0 7.25-3.046 10.14 10.14 0 0 0 2.957-7.314V18.395l-10.222.037ZM60.272 43.591v-1.938l3.292-.481V3.754l-3.292-.482V1.335h21.72c2.634 0 4.489-.302 5.564-.905l3.293 12.918-2.272.553c-1.037-1.89-1.985-3.458-2.843-4.705a15.976 15.976 0 0 0-2.873-3.2 11 11 0 0 0-3.767-2.02 17.2 17.2 0 0 0-5.179-.695 9.196 9.196 0 0 0-3.051.481v16.78h3.532c1.829 0 3.165-.554 4.009-1.66.843-1.108 1.421-2.667 1.734-4.679h1.92v15.271h-1.92c-.28-2.295-.848-4.036-1.704-5.223-.856-1.187-2.203-1.78-4.04-1.78h-3.531v18.712l3.293.481v1.938l-13.885-.01ZM99.285 35.744a5.38 5.38 0 0 0 .478 2.444c.29.592.735 1.093 1.287 1.45.53.338 1.118.573 1.734.692a10.07 10.07 0 0 0 1.946.183 6.473 6.473 0 0 0 2.195-.393 7.112 7.112 0 0 0 1.943-1.019c.499-.363.943-.8 1.314-1.295.274-.324.442-.725.48-1.149V21.75c0-1.368-.181-2.253-.548-2.655-.368-.401-1.139-.664-2.336-.783v-1.63l8.856-2.838v23.418c0 1.328.183 2.204.549 2.626.356.421 1.136.695 2.332.814v1.63l-6.462 2.112a6.467 6.467 0 0 1-1.227-1.937 20.309 20.309 0 0 1-.867-2.715 12.167 12.167 0 0 1-4.16 3.47c-1.575.783-3.46 1.175-5.653 1.177a7.898 7.898 0 0 1-2.665-.482 8.123 8.123 0 0 1-2.54-1.508 7.468 7.468 0 0 1-1.922-2.566 8.436 8.436 0 0 1-.719-3.599V21.738c0-1.368-.183-2.253-.549-2.655-.36-.401-1.136-.664-2.332-.783v-1.62l8.855-2.837.011 21.9ZM120.766 17.395v-2.716h3.293V6.35l5.985-3.44v11.77h6.761v2.715h-6.761v20.28c0 .928.307 1.631.927 2.113a3.522 3.522 0 0 0 2.242.725c.72 0 1.429-.176 2.066-.512a13.5 13.5 0 0 0 2.196-1.481l.9 1.63a14.467 14.467 0 0 1-3.622 3.017 8.075 8.075 0 0 1-4.158 1.268 7.05 7.05 0 0 1-3.142-.634 5.374 5.374 0 0 1-2.033-1.66 6.387 6.387 0 0 1-1.049-2.215 9.447 9.447 0 0 1-.299-2.325v-20.22l-3.306.014ZM147.332 35.744a5.34 5.34 0 0 0 .48 2.444 3.617 3.617 0 0 0 1.284 1.45c.531.338 1.12.573 1.737.692.64.124 1.291.185 1.943.183a6.469 6.469 0 0 0 2.195-.393 7.104 7.104 0 0 0 1.946-1.027c.5-.364.944-.8 1.317-1.296.272-.324.439-.725.478-1.148V21.74c0-1.367-.183-2.252-.549-2.654-.36-.401-1.136-.664-2.335-.784V16.68l8.857-2.837v23.418c0 1.328.183 2.204.549 2.626.36.421 1.136.695 2.333.814v1.63l-6.463 2.112a6.484 6.484 0 0 1-1.226-1.937 20.645 20.645 0 0 1-.867-2.715 12.154 12.154 0 0 1-4.158 3.47c-1.577.783-3.462 1.175-5.655 1.177a7.86 7.86 0 0 1-2.662-.482 8.16 8.16 0 0 1-2.544-1.508 7.509 7.509 0 0 1-1.921-2.566 8.445 8.445 0 0 1-.716-3.599V21.738c0-1.368-.183-2.253-.549-2.655-.357-.401-1.136-.664-2.332-.783v-1.62l8.855-2.837.003 21.9ZM175.097 13.835c.795.683 1.414 1.87 1.855 3.56.47 1.865.809 3.76 1.015 5.674h.121c.079-.24.2-.554.359-.905a84.36 84.36 0 0 1 1.372-3.045c.425-.868.925-1.696 1.496-2.474a8.565 8.565 0 0 1 2.036-2.024 4.342 4.342 0 0 1 2.514-.783c2.671 0 4.007 1.186 4.009 3.56 0 .805-.412 1.6-1.227 2.385a4.005 4.005 0 0 1-2.843 1.177 10.406 10.406 0 0 1-2.744-.482 3.602 3.602 0 0 0-.779-.183c-.8 0-1.587 1.358-2.363 4.075-.776 2.716-1.164 6.508-1.166 11.376a36.098 36.098 0 0 0 .359 5.614l3.293.603v1.63h-12.925v-1.63l3.293-.603V25.065c0-2.012-.338-3.722-1.015-5.132a3.489 3.489 0 0 0-1.348-1.584 3.446 3.446 0 0 0-2.003-.528v-1.63l6.691-2.356ZM195.856 29.77c.034 1.259.236 2.507.598 3.712.345 1.158.882 2.249 1.586 3.227a8.026 8.026 0 0 0 2.602 2.325 7.082 7.082 0 0 0 3.531.875c1.437 0 2.534-.252 3.293-.755a14.441 14.441 0 0 0 2.635-2.445c.357-.443.576-.703.656-.783l1.616 1.268c-1.636 2.413-3.32 4.224-5.055 5.43-1.734 1.207-3.878 1.81-6.432 1.81a9.277 9.277 0 0 1-4.58-1.145 10.67 10.67 0 0 1-3.499-3.139 14.904 14.904 0 0 1-2.195-4.526 18.215 18.215 0 0 1-.749-5.192c.005-1.962.257-3.915.749-5.813a19.85 19.85 0 0 1 2.245-5.4 11.69 11.69 0 0 1 3.822-3.923 9.631 9.631 0 0 1 5.236-1.447c1.468-.02 2.921.3 4.248.935a10.016 10.016 0 0 1 3.293 2.566 11.965 11.965 0 0 1 2.124 3.712c.492 1.363.745 2.803.746 4.254l-16.47 4.454Zm6.342-4.348c1.196-.322 2.044-.844 2.543-1.567.5-.724.75-1.81.75-3.26 0-1.49-.412-2.636-1.227-3.441-.815-.806-1.921-1.207-3.263-1.207-1.954 0-3.4 1.056-4.338 3.169-.939 2.113-1.407 4.819-1.405 8.119l6.94-1.813ZM215.458 5.03h-1.77v-.595h4.13l.022.595h-1.759v4.152l-.612.02-.011-4.172Zm3.019-.595h.711l1.709 4.003 1.669-4.003h.691v4.742h-.59v-3.49l-1.424 3.47h-.711l-1.465-3.532v3.552h-.59V4.435Z" fill="#EEE4CE"/></svg>