<svg width="48" height="49" viewBox="0 0 48 49" fill="none" xmlns="http://www.w3.org/2000/svg">
<path d="M12 26.6956H4C3.46957 26.6956 2.96086 26.9063 2.58579 27.2813C2.21071 27.6564 2 28.1651 2 28.6956V44.6956C2 45.226 2.21071 45.7347 2.58579 46.1098C2.96086 46.4848 3.46957 46.6956 4 46.6956H12C12.5304 46.6956 13.0391 46.4848 13.4142 46.1098C13.7893 45.7347 14 45.226 14 44.6956V28.6956C14 28.1651 13.7893 27.6564 13.4142 27.2813C13.0391 26.9063 12.5304 26.6956 12 26.6956ZM10 42.6956H6V30.6956H10V42.6956ZM44 18.6956H36C35.4696 18.6956 34.9609 18.9063 34.5858 19.2813C34.2107 19.6564 34 20.1651 34 20.6956V44.6956C34 45.226 34.2107 45.7347 34.5858 46.1098C34.9609 46.4848 35.4696 46.6956 36 46.6956H44C44.5304 46.6956 45.0391 46.4848 45.4142 46.1098C45.7893 45.7347 46 45.226 46 44.6956V20.6956C46 20.1651 45.7893 19.6564 45.4142 19.2813C45.0391 18.9063 44.5304 18.6956 44 18.6956ZM42 42.6956H38V22.6956H42V42.6956ZM28 2.69556H20C19.4696 2.69556 18.9609 2.90627 18.5858 3.28134C18.2107 3.65642 18 4.16512 18 4.69556V44.6956C18 45.226 18.2107 45.7347 18.5858 46.1098C18.9609 46.4848 19.4696 46.6956 20 46.6956H28C28.5304 46.6956 29.0391 46.4848 29.4142 46.1098C29.7893 45.7347 30 45.226 30 44.6956V4.69556C30 4.16512 29.7893 3.65642 29.4142 3.28134C29.0391 2.90627 28.5304 2.69556 28 2.69556ZM26 42.6956H22V6.69556H26V42.6956Z" fill="#A1A1A9"/>
</svg>
