<svg width="49" height="49" viewBox="0 0 49 49" fill="none" xmlns="http://www.w3.org/2000/svg">
<path d="M15.1835 31.9631C14.811 32.3378 14.602 32.8447 14.602 33.3731C14.602 33.9015 14.811 34.4084 15.1835 34.7831C15.3695 34.9705 15.5907 35.1193 15.8344 35.2209C16.0781 35.3224 16.3395 35.3747 16.6035 35.3747C16.8676 35.3747 17.129 35.3224 17.3727 35.2209C17.6164 35.1193 17.8376 34.9705 18.0235 34.7831C18.396 34.4084 18.6051 33.9015 18.6051 33.3731C18.6051 32.8447 18.396 32.3378 18.0235 31.9631C17.8376 31.7756 17.6164 31.6268 17.3727 31.5253C17.129 31.4238 16.8676 31.3715 16.6035 31.3715C16.3395 31.3715 16.0781 31.4238 15.8344 31.5253C15.5907 31.6268 15.3695 31.7756 15.1835 31.9631ZM15.1835 14.9831C14.811 15.3578 14.602 15.8647 14.602 16.3931C14.602 16.9215 14.811 17.4284 15.1835 17.8031C15.3695 17.9905 15.5907 18.1393 15.8344 18.2409C16.0781 18.3424 16.3395 18.3947 16.6035 18.3947C16.8676 18.3947 17.129 18.3424 17.3727 18.2409C17.6164 18.1393 17.8376 17.9905 18.0235 17.8031C18.396 17.4284 18.6051 16.9215 18.6051 16.3931C18.6051 15.8647 18.396 15.3578 18.0235 14.9831C17.8376 14.7956 17.6164 14.6468 17.3727 14.5453C17.129 14.4438 16.8676 14.3915 16.6035 14.3915C16.3395 14.3915 16.0781 14.4438 15.8344 14.5453C15.5907 14.6468 15.3695 14.7956 15.1835 14.9831ZM25.0835 34.9831C24.688 34.9831 24.3013 35.1004 23.9724 35.3202C23.6435 35.5399 23.3872 35.8523 23.2358 36.2177C23.0844 36.5832 23.0448 36.9853 23.122 37.3733C23.1991 37.7612 23.3896 38.1176 23.6693 38.3973C23.949 38.677 24.3054 38.8675 24.6934 38.9447C25.0813 39.0218 25.4835 38.9822 25.8489 38.8308C26.2144 38.6795 26.5267 38.4231 26.7465 38.0942C26.9662 37.7653 27.0835 37.3787 27.0835 36.9831C27.0971 36.7122 27.0554 36.4413 26.961 36.187C26.8666 35.9327 26.7214 35.7002 26.5343 35.5038C26.3472 35.3073 26.1221 35.151 25.8727 35.0443C25.6233 34.9376 25.3548 34.8827 25.0835 34.8831V34.9831ZM13.0835 22.9831C12.688 22.9831 12.3013 23.1004 11.9724 23.3202C11.6435 23.5399 11.3872 23.8523 11.2358 24.2177C11.0844 24.5832 11.0448 24.9853 11.122 25.3733C11.1991 25.7612 11.3896 26.1176 11.6693 26.3973C11.949 26.677 12.3054 26.8675 12.6934 26.9447C13.0813 27.0218 13.4835 26.9822 13.8489 26.8308C14.2144 26.6795 14.5267 26.4231 14.7465 26.0942C14.9662 25.7653 15.0835 25.3787 15.0835 24.9831C15.0971 24.7122 15.0554 24.4413 14.961 24.187C14.8666 23.9327 14.7214 23.7002 14.5343 23.5038C14.3472 23.3073 14.1221 23.151 13.8727 23.0443C13.6233 22.9376 13.3548 22.8827 13.0835 22.8831V22.9831ZM25.0835 10.9831C24.688 10.9831 24.3013 11.1004 23.9724 11.3202C23.6435 11.5399 23.3872 11.8523 23.2358 12.2177C23.0844 12.5832 23.0448 12.9853 23.122 13.3733C23.1991 13.7612 23.3896 14.1176 23.6693 14.3973C23.949 14.677 24.3054 14.8675 24.6934 14.9447C25.0813 15.0218 25.4835 14.9822 25.8489 14.8308C26.2144 14.6795 26.5267 14.4231 26.7465 14.0942C26.9662 13.7653 27.0835 13.3787 27.0835 12.9831C27.0971 12.7122 27.0554 12.4413 26.961 12.187C26.8666 11.9327 26.7214 11.7002 26.5343 11.5038C26.3472 11.3073 26.1221 11.151 25.8727 11.0443C25.6233 10.9376 25.3548 10.8828 25.0835 10.8831V10.9831ZM32.1635 15.0831C31.8827 15.3623 31.691 15.7187 31.6129 16.1069C31.5347 16.4952 31.5736 16.898 31.7247 17.2641C31.8757 17.6303 32.132 17.9433 32.4612 18.1636C32.7903 18.3839 33.1775 18.5015 33.5735 18.5015C33.9696 18.5015 34.3568 18.3839 34.6859 18.1636C35.0151 17.9433 35.2714 17.6303 35.4224 17.2641C35.5735 16.898 35.6124 16.4952 35.5342 16.1069C35.4561 15.7187 35.2644 15.3623 34.9835 15.0831C34.6222 14.697 34.1227 14.4697 33.5942 14.451C33.0657 14.4322 32.5513 14.6236 32.1635 14.9831V15.0831ZM44.7635 15.0831C42.935 11.4277 40.1244 8.35393 36.6467 6.20649C33.1691 4.05906 29.162 2.92285 25.0748 2.9253C20.9875 2.92774 16.9818 4.06873 13.5067 6.22032C10.0316 8.37191 7.22465 11.449 5.40051 15.1066C3.57636 18.7642 2.80719 22.8576 3.17924 26.9279C3.55129 30.9982 5.04985 34.8843 7.50688 38.1506C9.96391 41.4168 13.2823 43.934 17.0898 45.4199C20.8974 46.9059 25.0436 47.3017 29.0635 46.5631C30.0744 46.3729 31.0373 45.9831 31.8958 45.4165C32.7543 44.8498 33.4912 44.1178 34.0635 43.2631C34.6802 42.3339 35.1057 41.2912 35.3152 40.1958C35.5247 39.1004 35.5139 37.9743 35.2835 36.8831C35.1576 36.2237 35.0907 35.5544 35.0835 34.8831C35.0923 32.945 35.6641 31.0512 36.7293 29.4321C37.7945 27.813 39.3072 26.5383 41.0835 25.7631C42.0413 25.3343 42.901 24.7137 43.6096 23.9398C44.3182 23.1658 44.8607 22.2548 45.2035 21.2631C45.5503 20.2497 45.6901 19.1769 45.6145 18.1085C45.5389 17.04 45.2495 15.9976 44.7635 15.0431V15.0831ZM41.3635 19.9631C41.1929 20.4417 40.9279 20.8813 40.5844 21.2557C40.2409 21.6302 39.8257 21.9319 39.3635 22.1431C36.9035 23.2443 34.8136 25.0322 33.3449 27.2921C31.8761 29.552 31.0909 32.1878 31.0835 34.8831C31.0865 35.8233 31.1803 36.7609 31.3635 37.6831C31.4857 38.2467 31.4938 38.829 31.3873 39.3958C31.2808 39.9626 31.0619 40.5023 30.7435 40.9831C30.4742 41.4039 30.1197 41.7636 29.7029 42.0392C29.2861 42.3148 28.8162 42.5 28.3235 42.5831C27.2553 42.7838 26.1705 42.8843 25.0835 42.8831C22.6719 42.8843 20.2846 42.4008 18.0634 41.4614C15.8422 40.522 13.8325 39.1458 12.1535 37.4146C10.4745 35.6834 9.16051 33.6324 8.28958 31.3835C7.41865 29.1346 7.00852 26.7336 7.08355 24.3231C7.23877 19.8287 9.06156 15.553 12.1968 12.329C15.3321 9.10503 19.5552 7.16365 24.0435 6.88309H25.0635C28.4151 6.88393 31.6998 7.82046 34.5478 9.58722C37.3958 11.354 39.694 13.8808 41.1835 16.8831C41.642 17.8331 41.7067 18.9257 41.3635 19.9231V19.9631ZM25.0835 22.8831C24.688 22.8831 24.3013 23.0004 23.9724 23.2201C23.6435 23.4399 23.3872 23.7523 23.2358 24.1177C23.0844 24.4832 23.0448 24.8853 23.122 25.2733C23.1991 25.6612 23.3896 26.0176 23.6693 26.2973C23.949 26.577 24.3054 26.7675 24.6934 26.8447C25.0813 26.9218 25.4835 26.8822 25.8489 26.7308C26.2144 26.5795 26.5267 26.3231 26.7465 25.9942C26.9662 25.6653 27.0835 25.2787 27.0835 24.8831C27.0835 24.3527 26.8728 23.8439 26.4978 23.4689C26.1227 23.0938 25.614 22.8831 25.0835 22.8831Z" fill="#A1A1A9"/>
</svg>
