<svg width="49" height="49" viewBox="0 0 49 49" fill="none" xmlns="http://www.w3.org/2000/svg">
<path d="M22.5499 21.5714C21.9381 21.9246 21.4448 22.4514 21.1323 23.085C20.8199 23.7186 20.7023 24.4306 20.7945 25.131C20.8867 25.8314 21.1846 26.4887 21.6504 27.0199C22.1162 27.551 22.729 27.9321 23.4114 28.1149C24.0938 28.2978 24.8151 28.2741 25.4841 28.047C26.153 27.8199 26.7396 27.3995 27.1697 26.8391C27.5997 26.2786 27.8539 25.6031 27.9 24.8982C27.9462 24.1933 27.7823 23.4904 27.4291 22.8787C26.9553 22.0583 26.1752 21.4598 25.2602 21.2146C24.3452 20.9695 23.3703 21.0978 22.5499 21.5714ZM38.5593 25.4468C38.3248 25.1788 38.0774 24.9101 37.817 24.6406C37.9989 24.4495 38.1749 24.2585 38.345 24.0676C41.5566 20.4591 42.9121 16.8402 41.6562 14.6646C40.4518 12.5786 36.8693 11.9569 32.3843 12.829C31.9425 12.9154 31.5032 13.0129 31.0663 13.1215C30.9827 12.8331 30.8937 12.5465 30.7994 12.2615C29.2779 7.6764 26.8201 4.69398 24.308 4.69556C21.8992 4.69666 19.5711 7.48974 18.0859 11.8106C17.9398 12.2368 17.8046 12.6666 17.6804 13.1C17.3883 13.0283 17.095 12.9621 16.8004 12.9014C12.0684 11.9298 8.25705 12.5697 7.00351 14.7466C5.80151 16.8341 7.05857 20.2462 10.0605 23.6908C10.3583 24.0316 10.6644 24.3648 10.979 24.6903C10.6081 25.0723 10.257 25.4541 9.92967 25.8337C7.00047 29.2297 5.81529 32.5861 7.01535 34.6646C8.25473 36.8115 12.0124 37.5133 16.5862 36.6133C16.9568 36.5398 17.3254 36.4571 17.692 36.3653C17.8263 36.834 17.9736 37.2987 18.1339 37.7593C19.6125 41.9934 21.9276 44.6965 24.3279 44.6957C26.8068 44.6942 29.2918 41.7899 30.7974 37.3782C30.9163 37.0295 31.0288 36.6675 31.1355 36.2947C31.609 36.4125 32.0856 36.517 32.5652 36.6083C36.9719 37.442 40.4702 36.7863 41.6681 34.7063C42.9051 32.5577 41.6297 28.9542 38.5592 25.4468H38.5593ZM8.48429 15.5992C9.25601 14.2592 12.3708 13.7365 16.4565 14.5752C16.7176 14.6289 16.9832 14.6889 17.2532 14.7552C16.8543 16.5198 16.5729 18.3088 16.4107 20.1106C14.9365 21.1477 13.531 22.2791 12.2029 23.4978C11.9103 23.1952 11.6255 22.8852 11.3486 22.568L11.3487 22.5681C8.77653 19.6167 7.75991 16.8572 8.48429 15.5992ZM16.2576 27.0554C15.2365 26.2822 14.2875 25.4901 13.4262 24.6934C14.2869 23.9017 15.2365 23.1122 16.2555 22.3411C16.2189 23.1266 16.2008 23.9128 16.2011 24.6995C16.2016 25.4851 16.2205 26.2704 16.2576 27.0554ZM16.2564 34.9366C14.5229 35.3221 12.7333 35.3852 10.977 35.1229C10.4955 35.0854 10.0268 34.9496 9.59994 34.7238C9.17303 34.4981 8.79697 34.1871 8.49497 33.8103C7.76683 32.549 8.71849 29.8543 11.2236 26.9498C11.5386 26.5858 11.8638 26.2313 12.1994 25.8864C13.5277 27.1114 14.9355 28.2473 16.4137 29.2865C16.5781 31.1113 16.8628 32.9232 17.2661 34.7105C16.9315 34.7942 16.5949 34.8696 16.2564 34.9366ZM30.4587 18.8579C29.7879 18.4353 29.1088 18.0262 28.4214 17.6306C27.745 17.2413 27.0605 16.8666 26.3678 16.5065C27.5538 16.0078 28.7197 15.5819 29.8451 15.2349C30.1104 16.4315 30.3152 17.6407 30.4587 18.8579ZM19.7019 12.366C20.9744 8.6637 22.8572 6.40492 24.309 6.4043C25.8551 6.40356 27.864 8.84082 29.1776 12.7996C29.2629 13.0576 29.3436 13.3171 29.4196 13.5781C27.6938 14.1134 26.0054 14.7623 24.3653 15.5205C22.732 14.7533 21.0489 14.0972 19.3273 13.5566C19.4424 13.1567 19.5672 12.7599 19.7019 12.366ZM18.9012 15.2136C20.0751 15.5831 21.2297 16.0117 22.3605 16.4976C20.9594 17.2206 19.5945 18.0082 18.2658 18.8604C18.4263 17.5844 18.6399 16.3618 18.9012 15.2136ZM18.2687 30.5349C18.9313 30.9591 19.6036 31.3676 20.2856 31.7604C20.9812 32.1609 21.6861 32.5446 22.4003 32.9115C21.2609 33.4142 20.0964 33.858 18.9114 34.2413C18.6471 33.0772 18.4312 31.8331 18.2687 30.5349ZM29.1801 36.8259C28.648 38.5202 27.8086 40.102 26.7039 41.4924L26.7038 41.4926C26.4308 41.8908 26.079 42.2289 25.6702 42.4859C25.2614 42.7428 24.8042 42.9132 24.327 42.9866C22.8706 42.9874 21.0117 40.8166 19.7471 37.1957C19.5982 36.7675 19.4612 36.3356 19.3361 35.8997C21.0659 35.3416 22.7559 34.6669 24.3945 33.8803C26.048 34.6434 27.7499 35.2972 29.4892 35.8373C29.3942 36.1692 29.2912 36.4988 29.1801 36.8259ZM29.9046 34.1775C28.7661 33.8255 27.5834 33.3925 26.3803 32.8865C27.0585 32.5295 27.7417 32.1526 28.4297 31.7556C29.1358 31.3479 29.8239 30.93 30.4939 30.5018C30.3605 31.7363 30.1638 32.9632 29.9046 34.1776V34.1775ZM30.7971 24.6921C30.7986 25.9067 30.7607 27.1204 30.6834 28.333C29.698 28.9999 28.6577 29.651 27.5754 30.2759C26.4975 30.8982 25.4295 31.4701 24.3819 31.9877C23.2795 31.4594 22.1983 30.89 21.1384 30.2797C20.0844 29.673 19.0546 29.027 18.049 28.3417C17.9571 27.1294 17.9108 25.9149 17.9101 24.6982L17.9104 24.6986C17.9095 23.4828 17.9548 22.2682 18.0462 21.0549C19.0313 20.3822 20.0641 19.7316 21.1318 19.1151C22.2044 18.4957 23.2858 17.9263 24.3612 17.4102C25.45 17.9393 26.5192 18.5064 27.5688 19.1115C28.622 19.7168 29.6547 20.3559 30.6668 21.0288C30.7537 22.2481 30.7972 23.4692 30.7973 24.6921H30.7971ZM32.7106 14.5065C36.5533 13.759 39.4506 14.2618 40.1764 15.5189C40.9496 16.8582 39.8415 19.8159 37.0688 22.9316L37.0686 22.9318C36.9154 23.1036 36.7565 23.2762 36.5918 23.4496C35.2408 22.2283 33.8082 21.1005 32.3039 20.0739C32.1521 18.2918 31.8812 16.5219 31.493 14.776C31.9067 14.6742 32.3126 14.5844 32.7106 14.5065ZM32.4509 22.2759C33.4655 23.0167 34.4411 23.8097 35.3736 24.6516C34.4452 25.5073 33.4727 26.3139 32.4601 27.0682C32.4911 26.2763 32.5064 25.484 32.5059 24.6913C32.5055 23.886 32.4872 23.0809 32.4509 22.2759ZM40.187 33.8534C39.4601 35.1157 36.6513 35.6421 32.8826 34.9291C32.4507 34.8475 32.0076 34.7505 31.5531 34.6379C31.932 32.8696 32.1909 31.0777 32.3281 29.2744C33.8298 28.2299 35.2579 27.0833 36.6022 25.8427C36.8375 26.087 37.0612 26.3303 37.2735 26.5724V26.5723C38.4756 27.8794 39.4268 29.3966 40.0796 31.0481C40.2884 31.4835 40.4056 31.9571 40.4241 32.4396C40.4426 32.9221 40.3619 33.4033 40.187 33.8534Z" fill="#A1A1A9"/>
</svg>
