<svg width="48" height="49" viewBox="0 0 48 49" fill="none" xmlns="http://www.w3.org/2000/svg">
<path d="M28.5799 29.2631L21.9999 35.8431L19.4199 33.2631C19.234 33.0756 19.0128 32.9268 18.769 32.8253C18.5253 32.7238 18.2639 32.6715 17.9999 32.6715C17.7359 32.6715 17.4744 32.7238 17.2307 32.8253C16.987 32.9268 16.7658 33.0756 16.5799 33.2631C16.2074 33.6378 15.9983 34.1447 15.9983 34.6731C15.9983 35.2015 16.2074 35.7084 16.5799 36.0831L20.5799 40.0831C20.7658 40.2705 20.987 40.4193 21.2307 40.5209C21.4744 40.6224 21.7359 40.6747 21.9999 40.6747C22.2639 40.6747 22.5253 40.6224 22.769 40.5209C23.0128 40.4193 23.234 40.2705 23.4199 40.0831L31.4199 32.0831C31.7924 31.7084 32.0015 31.2015 32.0015 30.6731C32.0015 30.1447 31.7924 29.6378 31.4199 29.2631C31.234 29.0756 31.0128 28.9268 30.769 28.8253C30.5253 28.7238 30.2639 28.6715 29.9999 28.6715C29.7359 28.6715 29.4744 28.7238 29.2307 28.8253C28.987 28.9268 28.7658 29.0756 28.5799 29.2631ZM36.8399 17.5231C35.6165 14.7147 33.5058 12.3851 30.8314 10.8914C28.1569 9.39773 25.0664 8.82244 22.0336 9.25374C19.0009 9.68505 16.1933 11.0991 14.0413 13.2792C11.8894 15.4593 10.5118 18.285 10.1199 21.3231C8.45187 21.737 6.96147 22.677 5.86936 24.0039C4.77726 25.3309 4.1415 26.9743 4.05624 28.6908C3.97098 30.4072 4.44074 32.1055 5.39596 33.5342C6.35119 34.9629 7.74109 36.046 9.35988 36.6231C9.61535 36.7571 9.89679 36.8343 10.1849 36.8494C10.473 36.8644 10.761 36.817 11.029 36.7102C11.297 36.6035 11.5388 36.4401 11.7377 36.2311C11.9367 36.0222 12.088 35.7727 12.1814 35.4997C12.2749 35.2268 12.3081 34.9368 12.2789 34.6498C12.2497 34.3628 12.1588 34.0855 12.0124 33.8369C11.8659 33.5883 11.6675 33.3744 11.4305 33.2098C11.1936 33.0451 10.9239 32.9337 10.6399 32.8831C9.86035 32.6013 9.18761 32.0843 8.71467 31.4036C8.24173 30.7228 7.99196 29.912 7.99988 29.0831C7.99988 28.0222 8.42131 27.0048 9.17146 26.2547C9.9216 25.5045 10.939 25.0831 11.9999 25.0831C12.5303 25.0831 13.039 24.8724 13.4141 24.4973C13.7892 24.1222 13.9999 23.6135 13.9999 23.0831C14.0097 20.7194 14.8565 18.4355 16.39 16.6367C17.9236 14.838 20.0448 13.6406 22.3772 13.257C24.7096 12.8735 27.1025 13.3286 29.1313 14.5415C31.1601 15.7545 32.6937 17.647 33.4599 19.8831C33.5772 20.223 33.784 20.5251 34.0586 20.7574C34.3331 20.9897 34.6652 21.1437 35.0199 21.2031C36.352 21.4548 37.5596 22.1503 38.4459 23.1762C39.3322 24.202 39.845 25.4978 39.9007 26.8524C39.9563 28.2069 39.5516 29.5404 38.7525 30.6356C37.9533 31.7307 36.8069 32.5229 35.4999 32.8831C34.9694 32.9494 34.4871 33.2237 34.1589 33.6457C33.8307 34.0676 33.6836 34.6027 33.7499 35.1331C33.8162 35.6635 34.0905 36.1459 34.5124 36.4741C34.9344 36.8023 35.4694 36.9494 35.9999 36.8831H36.4999C38.6047 36.3269 40.4704 35.0991 41.8139 33.386C43.1574 31.673 43.9051 29.5683 43.9436 27.3916C43.982 25.215 43.3091 23.0852 42.027 21.3257C40.7449 19.5663 38.9237 18.2733 36.8399 17.6431V17.5231Z" fill="#A1A1A9"/>
</svg>
