<svg width="48" height="49" viewBox="0 0 48 49" fill="none" xmlns="http://www.w3.org/2000/svg">
<path d="M16 12.8831H22C22.5304 12.8831 23.0391 12.6723 23.4142 12.2973C23.7893 11.9222 24 11.4135 24 10.8831C24 10.3526 23.7893 9.84392 23.4142 9.46884C23.0391 9.09377 22.5304 8.88306 22 8.88306H16C15.4696 8.88306 14.9609 9.09377 14.5858 9.46884C14.2107 9.84392 14 10.3526 14 10.8831C14 11.4135 14.2107 11.9222 14.5858 12.2973C14.9609 12.6723 15.4696 12.8831 16 12.8831ZM32 12.8831C32.3956 12.8831 32.7822 12.7658 33.1111 12.546C33.44 12.3262 33.6964 12.0139 33.8478 11.6484C33.9991 11.283 34.0387 10.8808 33.9616 10.4929C33.8844 10.1049 33.6939 9.74855 33.4142 9.46884C33.1345 9.18914 32.7781 8.99866 32.3902 8.92149C32.0022 8.84432 31.6001 8.88392 31.2346 9.0353C30.8692 9.18667 30.5568 9.44302 30.3371 9.77192C30.1173 10.1008 30 10.4875 30 10.8831C30 11.4135 30.2107 11.9222 30.5858 12.2973C30.9609 12.6723 31.4696 12.8831 32 12.8831ZM32 20.8831C31.6044 20.8831 31.2178 21.0004 30.8889 21.2201C30.56 21.4399 30.3036 21.7522 30.1522 22.1177C30.0009 22.4831 29.9613 22.8853 30.0384 23.2732C30.1156 23.6612 30.3061 24.0176 30.5858 24.2973C30.8655 24.577 31.2219 24.7675 31.6098 24.8446C31.9978 24.9218 32.3999 24.8822 32.7654 24.7308C33.1308 24.5794 33.4432 24.3231 33.6629 23.9942C33.8827 23.6653 34 23.2786 34 22.8831C34 22.3526 33.7893 21.8439 33.4142 21.4688C33.0391 21.0938 32.5304 20.8831 32 20.8831ZM42 38.8831H29.64C29.3414 38.0443 28.8598 37.2824 28.2302 36.6529C27.6006 36.0233 26.8388 35.5417 26 35.2431V30.8831H34C35.5913 30.8831 37.1174 30.2509 38.2426 29.1257C39.3679 28.0005 40 26.4744 40 24.8831V20.8831C39.9912 19.4029 39.4356 17.9783 38.44 16.8831C39.4356 15.7878 39.9912 14.3632 40 12.8831V8.88306C40 7.29176 39.3679 5.76563 38.2426 4.64042C37.1174 3.5152 35.5913 2.88306 34 2.88306H14C12.4087 2.88306 10.8826 3.5152 9.75736 4.64042C8.63214 5.76563 8 7.29176 8 8.88306V12.8831C8.00882 14.3632 8.56442 15.7878 9.56 16.8831C8.56442 17.9783 8.00882 19.4029 8 20.8831V24.8831C8 26.4744 8.63214 28.0005 9.75736 29.1257C10.8826 30.2509 12.4087 30.8831 14 30.8831H22V35.2431C21.1612 35.5417 20.3994 36.0233 19.7698 36.6529C19.1402 37.2824 18.6586 38.0443 18.36 38.8831H6C5.46957 38.8831 4.96086 39.0938 4.58579 39.4688C4.21071 39.8439 4 40.3526 4 40.8831C4 41.4135 4.21071 41.9222 4.58579 42.2973C4.96086 42.6723 5.46957 42.8831 6 42.8831H18.36C18.7804 44.0414 19.5473 45.0421 20.5563 45.7494C21.5654 46.4566 22.7678 46.836 24 46.836C25.2322 46.836 26.4346 46.4566 27.4437 45.7494C28.4527 45.0421 29.2196 44.0414 29.64 42.8831H42C42.5304 42.8831 43.0391 42.6723 43.4142 42.2973C43.7893 41.9222 44 41.4135 44 40.8831C44 40.3526 43.7893 39.8439 43.4142 39.4688C43.0391 39.0938 42.5304 38.8831 42 38.8831ZM12 8.88306C12 8.35262 12.2107 7.84392 12.5858 7.46884C12.9609 7.09377 13.4696 6.88306 14 6.88306H34C34.5304 6.88306 35.0391 7.09377 35.4142 7.46884C35.7893 7.84392 36 8.35262 36 8.88306V12.8831C36 13.4135 35.7893 13.9222 35.4142 14.2973C35.0391 14.6723 34.5304 14.8831 34 14.8831H14C13.4696 14.8831 12.9609 14.6723 12.5858 14.2973C12.2107 13.9222 12 13.4135 12 12.8831V8.88306ZM14 26.8831C13.4696 26.8831 12.9609 26.6723 12.5858 26.2973C12.2107 25.9222 12 25.4135 12 24.8831V20.8831C12 20.3526 12.2107 19.8439 12.5858 19.4688C12.9609 19.0938 13.4696 18.8831 14 18.8831H34C34.5304 18.8831 35.0391 19.0938 35.4142 19.4688C35.7893 19.8439 36 20.3526 36 20.8831V24.8831C36 25.4135 35.7893 25.9222 35.4142 26.2973C35.0391 26.6723 34.5304 26.8831 34 26.8831H14ZM24 42.8831C23.6044 42.8831 23.2178 42.7658 22.8889 42.546C22.56 42.3262 22.3036 42.0139 22.1522 41.6484C22.0009 41.283 21.9613 40.8808 22.0384 40.4929C22.1156 40.1049 22.3061 39.7485 22.5858 39.4688C22.8655 39.1891 23.2219 38.9987 23.6098 38.9215C23.9978 38.8443 24.3999 38.8839 24.7654 39.0353C25.1308 39.1867 25.4432 39.443 25.6629 39.7719C25.8827 40.1008 26 40.4875 26 40.8831C26 41.4135 25.7893 41.9222 25.4142 42.2973C25.0391 42.6723 24.5304 42.8831 24 42.8831ZM22 20.8831H16C15.4696 20.8831 14.9609 21.0938 14.5858 21.4688C14.2107 21.8439 14 22.3526 14 22.8831C14 23.4135 14.2107 23.9222 14.5858 24.2973C14.9609 24.6723 15.4696 24.8831 16 24.8831H22C22.5304 24.8831 23.0391 24.6723 23.4142 24.2973C23.7893 23.9222 24 23.4135 24 22.8831C24 22.3526 23.7893 21.8439 23.4142 21.4688C23.0391 21.0938 22.5304 20.8831 22 20.8831Z" fill="#A1A1A9"/>
</svg>
