<svg width="48" height="49" viewBox="0 0 48 49" fill="none" xmlns="http://www.w3.org/2000/svg">
<path d="M44 15.8522C44.0096 15.7257 44.0096 15.5987 44 15.4722L40 5.47218C39.8438 5.07689 39.5657 4.74166 39.2061 4.51509C38.8464 4.28853 38.424 4.18243 38 4.21218H10C9.59944 4.21179 9.208 4.33169 8.87637 4.55634C8.54474 4.781 8.28821 5.10005 8.14 5.47218L4.14 15.4722C4.13036 15.5987 4.13036 15.7257 4.14 15.8522C4.07354 15.9635 4.02622 16.0852 4 16.2122C4.02226 17.5947 4.40245 18.9478 5.10349 20.1395C5.80453 21.3313 6.80248 22.321 8 23.0122V42.2122C8 42.7426 8.21071 43.2513 8.58579 43.6264C8.96086 44.0015 9.46957 44.2122 10 44.2122H38C38.5304 44.2122 39.0391 44.0015 39.4142 43.6264C39.7893 43.2513 40 42.7426 40 42.2122V23.0922C41.2091 22.3941 42.2145 21.3918 42.9162 20.1849C43.6179 18.9779 43.9916 17.6083 44 16.2122C44.0187 16.0929 44.0187 15.9715 44 15.8522ZM26 40.2122H22V32.2122H26V40.2122ZM36 40.2122H30V30.2122C30 29.6817 29.7893 29.173 29.4142 28.798C29.0391 28.4229 28.5304 28.2122 28 28.2122H20C19.4696 28.2122 18.9609 28.4229 18.5858 28.798C18.2107 29.173 18 29.6817 18 30.2122V40.2122H12V24.2122C13.1389 24.2058 14.2634 23.9562 15.2981 23.4802C16.3328 23.0043 17.254 22.3128 18 21.4522C18.7507 22.3034 19.674 22.9852 20.7085 23.4522C21.743 23.9192 22.865 24.1607 24 24.1607C25.135 24.1607 26.257 23.9192 27.2915 23.4522C28.326 22.9852 29.2493 22.3034 30 21.4522C30.746 22.3128 31.6672 23.0043 32.7019 23.4802C33.7366 23.9562 34.8611 24.2058 36 24.2122V40.2122ZM36 20.2122C34.9391 20.2122 33.9217 19.7908 33.1716 19.0406C32.4214 18.2905 32 17.273 32 16.2122C32 15.6817 31.7893 15.173 31.4142 14.798C31.0391 14.4229 30.5304 14.2122 30 14.2122C29.4696 14.2122 28.9609 14.4229 28.5858 14.798C28.2107 15.173 28 15.6817 28 16.2122C28 17.273 27.5786 18.2905 26.8284 19.0406C26.0783 19.7908 25.0609 20.2122 24 20.2122C22.9391 20.2122 21.9217 19.7908 21.1716 19.0406C20.4214 18.2905 20 17.273 20 16.2122C20 15.6817 19.7893 15.173 19.4142 14.798C19.0391 14.4229 18.5304 14.2122 18 14.2122C17.4696 14.2122 16.9609 14.4229 16.5858 14.798C16.2107 15.173 16 15.6817 16 16.2122C16.0197 16.7375 15.9357 17.2615 15.7529 17.7543C15.5701 18.2472 15.292 18.6992 14.9345 19.0845C14.577 19.4699 14.1471 19.7811 13.6693 20.0003C13.1916 20.2195 12.6753 20.3425 12.15 20.3622C11.0891 20.402 10.0559 20.0187 9.27764 19.2967C8.89228 18.9392 8.5811 18.5093 8.36188 18.0315C8.14267 17.5537 8.0197 17.0375 8 16.5122L11.36 8.21218H36.64L40 16.5122C39.9242 17.5202 39.4695 18.4622 38.7274 19.1486C37.9853 19.835 37.0109 20.215 36 20.2122Z" fill="#A1A1A9"/>
</svg>
