<svg width="48" height="48" viewBox="0 0 48 48" fill="none" xmlns="http://www.w3.org/2000/svg">
<path d="M37.0799 18.0001L17.7599 6.92005C16.7145 6.31637 15.5279 6.00013 14.3207 6.00344C13.1135 6.00676 11.9287 6.32952 10.8866 6.93893C9.8445 7.54835 8.98225 8.42271 8.38743 9.47321C7.79261 10.5237 7.48642 11.7129 7.49994 12.9201V35.1601C7.49994 36.9741 8.22058 38.7139 9.50333 39.9967C10.7861 41.2794 12.5259 42.0001 14.3399 42.0001C15.5408 41.998 16.7201 41.6808 17.7599 41.0801L37.0799 30.0001C38.1181 29.3992 38.9799 28.536 39.5791 27.4969C40.1783 26.4579 40.4937 25.2795 40.4937 24.0801C40.4937 22.8806 40.1783 21.7022 39.5791 20.6632C38.9799 19.6241 38.1181 18.7609 37.0799 18.1601V18.0001ZM35.0799 26.3801L15.7599 37.6201C15.3269 37.8655 14.8377 37.9945 14.3399 37.9945C13.8422 37.9945 13.353 37.8655 12.9199 37.6201C12.4881 37.3707 12.1296 37.0122 11.8803 36.5803C11.631 36.1485 11.4999 35.6587 11.4999 35.1601V12.8401C11.4999 12.3414 11.631 11.8516 11.8803 11.4198C12.1296 10.9879 12.4881 10.6294 12.9199 10.3801C13.3548 10.1384 13.8425 10.0078 14.3399 10.0001C14.837 10.0103 15.3242 10.1406 15.7599 10.3801L35.0799 21.5401C35.5119 21.7892 35.8706 22.1478 36.1201 22.5796C36.3695 23.0115 36.5008 23.5014 36.5008 24.0001C36.5008 24.4987 36.3695 24.9886 36.1201 25.4205C35.8706 25.8523 35.5119 26.2109 35.0799 26.4601V26.3801Z" fill="#A1A1A9"/>
</svg>
