<svg width="193" height="25" viewBox="0 0 193 25" fill="none" xmlns="http://www.w3.org/2000/svg">
<path d="M7.13665 11.5711C6.91262 11.283 6.49655 11.219 6.20851 11.4431C6.1125 11.5071 6.04849 11.6031 6.01648 11.6991L0.255616 23.2528C0.0955924 23.6049 0.223612 24.021 0.575664 24.181C0.671679 24.213 0.767693 24.245 0.895712 24.245H8.92892C9.18496 24.245 9.441 24.117 9.53701 23.8609C11.2333 20.2764 10.1771 14.8356 7.13665 11.5711Z" fill="white"/>
<path d="M11.3622 1.07363C8.4498 5.58631 8.09775 11.2832 10.4661 16.1159L14.3387 23.8611C14.4667 24.0851 14.6907 24.2451 14.9468 24.2451H22.98C23.364 24.2451 23.6841 23.9251 23.6841 23.541C23.6841 23.445 23.6521 23.317 23.6201 23.221C23.6201 23.221 12.8025 1.58571 12.5464 1.04163C12.3864 0.721578 12.0023 0.593561 11.6823 0.753585C11.5223 0.8496 11.4262 0.945614 11.3622 1.07363Z" fill="white"/>
<path d="M105.647 10.3551C105.647 13.2035 106.959 15.4758 112.144 16.5C115.248 17.1401 115.888 17.6522 115.888 18.6763C115.888 19.6685 115.248 20.3406 113.072 20.3406C110.448 20.3086 107.855 19.6045 105.551 18.2923V22.933C107.119 23.7011 109.167 24.5652 113.008 24.5652C118.417 24.5652 120.593 22.1328 120.593 18.5483M120.561 18.5483C120.561 15.1558 118.769 13.5556 113.68 12.4674C110.896 11.8593 110.191 11.2192 110.191 10.3551C110.191 9.2349 111.184 8.75483 113.04 8.75483C115.28 8.75483 117.489 9.42693 119.569 10.3871V5.9064C117.553 4.97826 115.376 4.53019 113.168 4.5942C108.143 4.5942 105.551 6.77053 105.551 10.3551" fill="white"/>
<path d="M175.289 4.8822V24.2451H179.418V9.4909L181.146 13.3955L187.003 24.2451H192.188V4.8822H188.059V17.3961L186.491 13.7475L181.786 4.8822H175.289Z" fill="white"/>
<path d="M149.045 4.8822H144.532V24.2451H149.045V4.8822Z" fill="white"/>
<path d="M139.347 18.5483C139.347 15.1558 137.555 13.5556 132.466 12.4674C129.682 11.8593 128.978 11.2192 128.978 10.3551C128.978 9.2349 129.97 8.75483 131.826 8.75483C134.067 8.75483 136.275 9.42693 138.355 10.3871V5.9064C136.339 4.97826 134.163 4.53019 131.954 4.5942C126.93 4.5942 124.337 6.77053 124.337 10.3551C124.337 13.2035 125.649 15.4758 130.834 16.5C133.939 17.1401 134.579 17.6522 134.579 18.6763C134.579 19.6685 133.939 20.3406 131.762 20.3406C129.138 20.3086 126.546 19.6045 124.241 18.2923V22.933C125.809 23.7011 127.858 24.5652 131.698 24.5652C137.203 24.5332 139.347 22.1328 139.347 18.5483Z" fill="white"/>
<path d="M70.6006 4.8822V24.2451H79.882L81.3222 20.0525H75.1453V4.8822H70.6006Z" fill="white"/>
<path d="M52.2949 4.8822V9.07483H57.3197V24.2451H61.8644V9.07483H67.2092V4.8822H52.2949Z" fill="white"/>
<path d="M45.7352 4.8822H39.7823L33.0293 24.2451H38.1821L39.1422 20.9806C41.5106 21.6847 44.0069 21.6847 46.3753 20.9806L47.3354 24.2451H52.4882L45.7352 4.8822ZM42.7588 17.4921C41.9266 17.4921 41.0945 17.3641 40.2624 17.14L42.7588 8.69078L45.2551 17.14C44.423 17.3961 43.5909 17.4921 42.7588 17.4921Z" fill="white"/>
<path d="M95.8563 4.8822H89.9034L83.1504 24.2451H88.3032L89.2633 20.9806C91.6317 21.6847 94.128 21.6847 96.4964 20.9806L97.4565 24.2451H102.609L95.8563 4.8822ZM92.8798 17.4921C92.0477 17.4921 91.2156 17.3641 90.3835 17.14L92.8798 8.69078L95.3762 17.14C94.5441 17.3961 93.712 17.4921 92.8798 17.4921Z" fill="white"/>
<path d="M165.304 4.8822H159.351L152.598 24.2451H157.75L158.711 20.9806C161.079 21.6847 163.575 21.6847 165.944 20.9806L166.904 24.2451H172.057L165.304 4.8822ZM162.327 17.4921C161.495 17.4921 160.663 17.3641 159.831 17.14L162.327 8.69078L164.823 17.14C163.991 17.3961 163.159 17.4921 162.327 17.4921Z" fill="white"/>
</svg>
