<svg width="136" height="40" viewBox="0 0 155 44" fill="none" xmlns="http://www.w3.org/2000/svg">
<path d="M16.7917 7.28497V19.685H5.39916V7.28497H0V36.8641H5.39916V24.8775H16.7917V36.8641H22.1908V7.28497H16.7917Z" fill="white"/>
<path d="M39.4732 27.3058C39.4732 29.7858 37.4841 31.775 35.0041 31.775C32.5241 31.775 30.5349 29.7858 30.5349 27.3058V14.6216H25.4199V27.3058C25.4199 32.6016 29.7083 36.89 35.0041 36.89C40.2999 36.89 44.5882 32.6016 44.5882 27.3058V14.6216H39.4732V27.3058Z" fill="white"/>
<path d="M77.4487 15.9392C77.4487 13.33 79.1795 12.5292 81.0395 12.5292C82.5637 12.5292 84.5528 13.6917 85.8703 15.0867L89.2287 11.1342C87.5495 8.86085 84.1653 7.31085 81.3753 7.31085C75.8212 7.31085 71.7912 10.5659 71.7912 15.965C71.7912 25.9883 84.0362 22.8108 84.0362 28.4167C84.0362 30.1475 82.357 31.6717 80.4453 31.6717C77.4228 31.6717 76.4412 30.1992 75.0462 28.6233L71.3262 32.4983C73.7028 35.4175 76.6478 36.9158 80.1612 36.9158C85.4312 36.9158 89.6937 33.6092 89.6937 28.4683C89.6937 17.3083 77.4487 20.77 77.4487 15.9392Z" fill="white"/>
<path d="M153.192 32.1367C150.169 32.1367 149.291 30.8192 149.291 28.83V19.9434H153.992V15.4484H149.317V9.50671L144.124 11.8317V29.915C144.124 34.5392 147.327 36.8642 151.693 36.8642C152.391 36.8642 153.062 36.8125 153.734 36.7092L155 32.0592C154.432 32.085 153.76 32.1367 153.192 32.1367Z" fill="white"/>
<path d="M59.0037 14.7767C56.4721 14.7767 54.6896 15.5 52.9846 17.205V7.46588H47.8438V25.5234C47.8438 32.2917 52.7262 36.9159 58.2287 36.9159C64.3254 36.9159 69.6729 32.2142 69.6729 25.8592C69.6471 19.5817 64.7387 14.7767 59.0037 14.7767ZM58.9521 31.7234C55.7229 31.7234 53.1396 29.1142 53.1396 25.9109C53.1396 22.6817 55.7487 20.0984 58.9521 20.0984C62.1812 20.0984 64.7646 22.7075 64.7646 25.9109C64.7904 29.1142 62.1812 31.7234 58.9521 31.7234Z" fill="white"/>
<path d="M114.726 25.575C114.726 19.22 109.378 14.5183 103.281 14.5183C97.8048 14.5183 92.8965 19.1425 92.8965 25.9108V43.9683H98.0373V34.2291C99.7423 35.9083 101.525 36.6575 104.056 36.6575C109.791 36.6316 114.726 31.8266 114.726 25.575ZM109.869 25.4975C109.869 28.7266 107.26 31.31 104.056 31.31C100.853 31.31 98.244 28.7008 98.244 25.4975C98.244 22.2941 100.853 19.685 104.056 19.685C107.26 19.685 109.869 22.2941 109.869 25.4975Z" fill="white"/>
<path d="M131.311 14.26V9.09333C132.706 8.4475 133.584 7.0525 133.61 5.5025V5.37334C133.61 3.1775 131.828 1.395 129.632 1.395H129.503C127.307 1.395 125.524 3.1775 125.524 5.37334V5.5025C125.524 7.02667 126.429 8.42167 127.824 9.09333V14.26C125.86 14.57 124.026 15.3708 122.476 16.6108L108.345 5.60583C108.449 5.24417 108.5 4.85666 108.5 4.495C108.5 2.015 106.511 0.0258333 104.031 0C101.551 0 99.562 1.98917 99.5361 4.46917C99.5361 6.94917 101.525 8.93833 104.005 8.96417C104.78 8.96417 105.529 8.75749 106.201 8.36999L120.125 19.1942C117.568 23.0692 117.619 28.1067 120.306 31.9042L116.069 36.1408C115.734 36.0375 115.372 35.9858 115.01 35.96C112.969 35.96 111.342 37.6133 111.342 39.6283C111.342 41.6691 112.995 43.2966 115.01 43.2966C117.025 43.2966 118.679 41.6433 118.679 39.6283C118.679 39.2666 118.627 38.905 118.498 38.5692L122.683 34.3842C127.617 38.1816 134.721 37.2775 138.519 32.3175C142.316 27.3833 141.412 20.2792 136.452 16.4817C135.005 15.3192 133.223 14.5442 131.311 14.26ZM129.58 31.2325C126.377 31.2325 123.794 28.6233 123.794 25.42C123.794 22.2167 126.403 19.6333 129.606 19.6333C132.809 19.6333 135.393 22.2425 135.393 25.42C135.393 28.6233 132.784 31.2325 129.58 31.2325Z" fill="white"/>
</svg>
