<svg width="152" height="38" viewBox="0 0 152 38" fill="none" xmlns="http://www.w3.org/2000/svg">
<path d="M38.5659 5.03288L33.167 7.7778L7.14786 21.0297C7.05091 20.3693 7.01455 19.6845 7.01455 19.0059C7.03273 10.45 13.9829 3.51803 22.5388 3.51803C25.1686 3.51803 27.768 4.20274 30.0767 5.48734L33.1609 3.91795L33.6154 3.68769C25.1504 -2.46867 13.3163 -0.572076 7.17816 7.87475C4.83317 11.1105 3.56069 15.0127 3.56069 19.0059C3.56069 19.4785 3.57887 19.9693 3.61522 20.448C3.73035 21.8296 2.9911 23.1384 1.74286 23.7807L0.125 24.6109V28.4707L4.918 26.0288L6.46921 25.235L8.00224 24.4594L35.4211 10.4864L38.5053 8.91697L44.8677 5.68124V1.7911L38.5659 5.03288Z" fill="white"/>
<path d="M44.8859 9.53491L9.55345 27.5253L6.46921 29.0947L0.125 32.3365V36.1963L6.43285 32.997L11.8318 30.2521L37.8873 16.9759C37.9842 17.6606 38.0206 18.3392 38.0206 19.024C38.0206 27.5798 31.0704 34.5118 22.5145 34.5118C19.8666 34.5118 17.2489 33.8271 14.9403 32.5243L14.7524 32.6213L11.4016 34.324C19.8666 40.4561 31.7006 38.5837 37.857 30.1187C40.208 26.883 41.4745 22.9989 41.4745 19.0058C41.4745 18.515 41.4563 18.0423 41.4199 17.5455C41.3048 16.1639 42.044 14.8551 43.2923 14.2128L44.9223 13.3766V9.53491H44.8859Z" fill="white"/>
<path d="M98.0991 12.2252C92.7002 12.2252 88.501 16.2002 88.501 22.4899C88.501 28.3433 91.9488 32.8272 98.2142 32.8272C103.025 32.8272 106.188 30.0035 107.073 26.6163H103.625C102.771 28.5675 101.165 29.8945 98.2263 29.8945C95.2875 29.8945 92.2396 27.8282 92.1306 23.5684H107.352C107.734 17.2606 104.159 12.2252 98.0991 12.2252ZM92.1306 20.672C92.4335 16.6971 95.1421 15.0853 98.093 15.0853C101.656 15.0853 103.68 17.8847 103.795 20.672H92.1306Z" fill="white"/>
<path d="M68.1598 17.0361L65.0756 16.3332C62.573 15.7818 60.7189 14.6124 60.7189 12.2613C60.7189 9.28615 64.3182 8.35906 66.3784 8.35906C69.0263 8.35906 72.1166 9.41946 73.0074 12.4673H76.643C75.5826 7.3532 71.341 5.19604 66.5298 5.19604C62.2337 5.19604 56.8893 7.37137 56.8893 12.4673C56.8893 16.8786 60.525 18.9449 64.197 19.7386L67.5115 20.4415C70.8623 21.2171 73.2497 22.3139 73.2497 25.1558C73.2497 27.8037 71.0138 29.6458 67.0388 29.6458C63.0639 29.6458 60.3917 27.731 59.6948 24.059H56.0046C56.7075 29.361 60.6825 32.8088 66.9661 32.8088C72.2681 32.8088 77.1156 30.0093 77.1156 24.8346C77.1156 19.4599 72.2318 17.9269 68.1598 17.0361Z" fill="white"/>
<path d="M84.3144 7.58337H80.9636V12.546H77.8369V15.2364H80.9636V27.3734C80.9636 31.4999 81.8543 32.3361 85.6414 32.3361H88.0652V29.5366H86.3807C84.4659 29.5366 84.3144 29.0276 84.3144 26.9614V15.2364H88.0652V12.546H84.3144V7.58337Z" fill="white"/>
<path d="M150.604 12.4313C147.992 12.5464 146.005 13.7583 145.017 15.9881V12.5464H141.739V32.3365H145.09V21.9567C145.09 17.5454 146.641 15.8973 149.731 15.8973C150.355 15.8973 150.98 15.9518 151.604 16.0487V12.4676C151.27 12.4555 150.925 12.4313 150.604 12.4313Z" fill="white"/>
<path d="M138.528 24.8778L138.564 20.3151C138.6 14.692 136.255 12.1531 130.705 12.1531C126.881 12.1531 123.052 14.5405 122.773 18.8003H126.221C126.372 16.3401 127.942 14.8616 130.747 14.8616C133.244 14.8616 135.237 16.0372 135.237 19.6728V20.1454C127.154 21.0362 121.852 22.4177 121.852 27.0956C121.852 30.7312 124.936 32.7975 128.651 32.7975C132.171 32.7975 134.201 31.6644 135.413 29.5981C135.449 30.507 135.528 31.416 135.68 32.3249H139.067C138.637 30.4586 138.485 28.2045 138.528 24.8778ZM135.474 24.0598C135.474 28.7377 132.499 30.1556 129.378 30.1556C126.991 30.1556 125.554 28.9074 125.554 27.0289C125.554 24.3022 129.414 23.3933 135.48 22.8055L135.474 24.0598Z" fill="white"/>
<path d="M112.921 5.65662H109.57V32.318H112.921V5.65662Z" fill="white"/>
<path d="M119.61 5.65662H116.259V32.318H119.61V5.65662Z" fill="white"/>
</svg>
