<svg width="138" height="32" viewBox="0 0 138 32" fill="none" xmlns="http://www.w3.org/2000/svg">
<path d="M10.0993 11.2479V9.24091H2.6479V2.81323H0.437081V9.24091H0.446435V11.2479H0.437081L0.39624 24.4298C0.39624 27.323 1.20829 29.3086 2.83239 30.3865C3.71408 30.972 4.82795 31.2801 6.16462 31.3216V31.3303H9.95703V29.1853H6.27818C5.63871 29.16 5.01327 28.9904 4.44867 28.6891C3.24755 28.0073 2.64698 26.5744 2.64698 24.3903V11.2483L10.0993 11.2479Z" fill="white"/>
<path d="M35.5129 31.2679C33.3021 31.2679 31.4598 30.722 29.9859 29.6302C28.512 28.5384 27.7341 27.0235 27.6521 25.0856C27.5703 23.0939 28.3073 21.4358 29.863 20.1113C31.4187 18.7869 33.9571 18.1114 37.4782 18.0848L44.8475 18.0435V16.1604C44.8475 14.4408 44.1447 13.1238 42.7391 12.2094C41.3335 11.2951 39.5935 10.8379 37.5192 10.8379C35.939 10.8005 34.373 11.1447 32.9541 11.8414C31.6577 12.5104 30.8729 13.5953 30.5998 15.0963L28.389 15.1371C28.4535 14.1905 28.746 13.2735 29.2414 12.4643C29.7369 11.6552 30.4207 10.9779 31.2345 10.4901C32.94 9.41259 35.0212 8.87344 37.4782 8.87268C40.2072 8.87268 42.4794 9.50747 44.2949 10.777C46.1104 12.0466 47.018 13.7456 47.0175 15.8742V30.941H44.8475V25.2908C44.5868 25.8356 44.2785 26.3563 43.9264 26.8469C43.4226 27.5226 42.8683 28.159 42.2681 28.7507C41.4515 29.5527 40.475 30.1735 39.4023 30.5727C38.1615 31.0484 36.8417 31.2843 35.5129 31.2679ZM35.6357 29.2609C38.119 29.2609 40.2753 28.3396 42.1046 26.497C42.9871 25.6392 43.6854 24.6104 44.157 23.4736C44.6286 22.3368 44.8636 21.1157 44.8475 19.8851H37.7648C34.8713 19.9126 32.8106 20.4517 31.5825 21.5025C30.3545 22.5533 29.7949 23.761 29.9038 25.1257C29.9447 25.7368 30.1292 26.3297 30.4422 26.8561C30.7553 27.3826 31.1881 27.8277 31.7055 28.1555C32.8729 28.9147 34.2437 29.3005 35.6357 29.2618V29.2609Z" fill="white"/>
<path d="M57.4396 30.9473L49.0875 9.24841H51.544L59.4867 30.2926L67.4294 9.24841H69.8858L61.5337 30.9473H57.4396Z" fill="white"/>
<path d="M81.9942 31.2679C78.8827 31.2679 76.2556 30.1761 74.1131 27.9925C72.0487 25.8709 70.8953 23.0264 70.8992 20.0662C70.903 17.1059 72.0637 14.2645 74.1336 12.1482C75.1474 11.09 76.369 10.2528 77.7217 9.68907C79.0744 9.12538 80.529 8.84738 81.9942 8.87254C84.7225 8.82923 87.3571 9.867 89.323 11.7593C91.3276 13.5986 92.5815 16.114 92.8438 18.8219C92.9517 19.4857 92.9656 20.1613 92.8848 20.8289H73.1509C73.191 21.9589 73.4561 23.0696 73.9307 24.0959C74.4052 25.1222 75.0796 26.0436 75.9146 26.8061C77.5522 28.3629 79.7349 29.2156 81.9942 29.1809C83.5713 29.1894 85.1234 28.7873 86.498 28.014C87.8613 27.2638 89.0046 26.17 89.8142 24.8412L91.9842 25.2095C91.0654 27.0304 89.6447 28.5504 87.8901 29.5901C86.1214 30.692 84.0781 31.2735 81.9942 31.2679ZM73.1509 18.9855H90.6329C90.4522 16.7988 89.4676 14.7567 87.8693 13.2536C87.0871 12.4919 86.1613 11.8934 85.1457 11.4927C84.1301 11.0921 83.0449 10.8973 81.9534 10.9199C79.7241 10.8737 77.5673 11.7128 75.9554 13.2536C74.3352 14.7452 73.3342 16.7909 73.1505 18.9855H73.1509Z" fill="white"/>
<path d="M22.4525 8.7962C21.2339 8.79603 20.0304 9.06546 18.9281 9.58517C17.8259 10.1049 16.8523 10.862 16.0771 11.8023V9.2409H13.8252V31.3314H16.0771V17.0719H16.0837C16.0856 15.3833 16.7572 13.7645 17.9512 12.5705C19.1452 11.3766 20.764 10.7049 22.4525 10.703C23.8657 10.6979 25.2396 11.1675 26.354 12.0365L27.5232 10.5313C26.0754 9.40065 24.2895 8.78954 22.4525 8.7962Z" fill="white"/>
<path d="M102.84 29.1853C102.2 29.16 101.575 28.9903 101.01 28.689C99.8093 28.0073 99.2087 26.5744 99.2087 24.3903V2.81433H96.9979V9.242H97.0072V11.249H96.9979L96.957 24.4309C96.957 27.3241 97.7691 29.3097 99.3932 30.3876C100.287 30.9806 101.416 31.2938 102.779 31.3272V31.332H106.641V29.1853H102.84Z" fill="white"/>
<path d="M109.26 2.81433L116.398 16.0633H118.776L111.638 2.81433H109.26ZM130.417 2.81433H128.04L120.902 16.0633H123.28L130.417 2.81433ZM109.26 31.4497H111.638L118.776 18.2007H116.398L109.26 31.4497ZM120.901 18.2007L128.039 31.4497H130.417L123.279 18.2007H120.901Z" fill="white"/>
<path d="M137.562 2.64885C137.565 3.06698 137.443 3.47639 137.212 3.82513C136.981 4.17387 136.652 4.44624 136.267 4.60764C135.881 4.76904 135.456 4.8122 135.046 4.73167C134.635 4.65113 134.258 4.45054 133.962 4.15531C133.666 3.86007 133.464 3.48353 133.383 3.07346C133.301 2.6634 133.343 2.23829 133.503 1.85209C133.663 1.46589 133.935 1.13599 134.283 0.904291C134.631 0.672589 135.04 0.549533 135.458 0.550701C135.735 0.544402 136.011 0.594309 136.269 0.697443C136.527 0.800577 136.761 0.954792 136.958 1.15081C137.154 1.34683 137.309 1.58061 137.413 1.83806C137.517 2.0955 137.568 2.37129 137.562 2.64885ZM137.334 2.64885C137.34 2.4008 137.295 2.15416 137.203 1.92386C137.11 1.69356 136.972 1.48439 136.797 1.30894C136.622 1.13349 136.412 0.995405 136.182 0.903066C135.952 0.810727 135.705 0.766048 135.457 0.771691C135.082 0.769347 134.716 0.878444 134.403 1.08511C134.091 1.29177 133.847 1.58667 133.702 1.93232C133.558 2.27798 133.519 2.65876 133.592 3.0263C133.664 3.39384 133.845 3.73153 134.109 3.99643C134.374 4.26132 134.712 4.44148 135.08 4.51399C135.447 4.5865 135.828 4.54808 136.174 4.40363C136.519 4.25919 136.814 4.01524 137.021 3.70278C137.227 3.39031 137.337 3.02347 137.334 2.64885ZM135.977 3.00737L136.539 3.86831H136.216L135.696 3.06119C135.651 3.06609 135.605 3.06807 135.559 3.06712H134.938V3.86831H134.627V1.45337H135.559C136.151 1.45337 136.516 1.7642 136.516 2.25454C136.523 2.42202 136.473 2.58696 136.376 2.7233C136.278 2.85963 136.138 2.95959 135.977 3.00737H135.977ZM136.21 2.25476C136.21 1.91381 135.965 1.71654 135.541 1.71654H134.931V2.80462H135.541C135.966 2.80416 136.211 2.60097 136.211 2.25431L136.21 2.25476Z" fill="white"/>
</svg>
