<svg version="1.1" id="Layer_1" xmlns="http://www.w3.org/2000/svg" xmlns:xlink="http://www.w3.org/1999/xlink" x="0px" y="0px" width="44px" height="44px"
	 viewBox="0 0 1024 1024" style="enable-background:new 0 0 1024 1024;" xml:space="preserve">
<style type="text/css">
	.st0{fill:#FFFFFF;}
</style>
<path class="st0" d="M469.3,85.3h85.3v85.3H576c35.3,0,64,28.7,64,64V384l-18.8,18.8l70,121.2C738.6,477.4,768,413,768,341.3h85.3
	c0,103.3-45.7,195.8-118.2,258.6l134,232.1l5.5,94.7l-79.8-52.1l-131-227.4c-45.2,22.6-97.3,35.4-151.9,35.4
	c-54.6,0-106.7-12.8-151.9-35.4l-131,227.4l-79.8,52.1l5.5-94.7l247.9-429.2L384,384V234.7c0-35.3,28.7-64,64-64h21.3V85.3
	 M402.8,573c33.3,15.8,70.4,24.3,109.2,24.3s75.9-8.5,109.2-24.3l-62.3-107.9h-0.4c-26.5,25.6-66.6,25.6-93,0h-0.4L402.8,573
	 M512,256c-23.6,0-42.7,19.1-42.7,42.7s19.1,42.7,42.7,42.7s42.7-19.1,42.7-42.7l0,0C554.7,275.1,535.6,256,512,256L512,256L512,256
	z"/>
</svg>

