<?xml version="1.0" encoding="utf-8"?>
<!-- Generator: Adobe Illustrator 26.5.3, SVG Export Plug-In . SVG Version: 6.00 Build 0)  -->
<svg width="126" height="36" version="1.1" id="Layer_1" xmlns="http://www.w3.org/2000/svg" xmlns:xlink="http://www.w3.org/1999/xlink" x="0px" y="0px"
	 viewBox="0 0 1180 320" style="enable-background:new 0 0 1180 320;" xml:space="preserve">
<style type="text/css">
	.st0{fill:#FFFFFF;}
</style>
<path class="st0" d="M367.4,153.8c0,52.3,33.6,88.8,80.2,88.8s80.2-36.5,80.2-88.8S494.2,65,447.6,65S367.4,101.5,367.4,153.8z
	 M497,153.8c0,37.4-20.4,61.7-49.4,61.7s-49.4-24.2-49.4-61.7s20.4-61.7,49.4-61.7S497,116.4,497,153.8z"/>
<path class="st0" d="M614.3,242.6c35.3,0,55.4-29.8,55.4-65.5s-20.2-65.5-55.4-65.5c-16.3,0-28.3,6.5-36.2,15.8V114h-28.8v169.2H578
	v-56.4C586,236.2,598,242.6,614.3,242.6L614.3,242.6z M577.3,173.5c0-23.8,13.4-36.7,31.2-36.7c20.9,0,32.2,16.3,32.2,40.3
	s-11.3,40.3-32.2,40.3c-17.8,0-31.2-13.2-31.2-36.5V173.5z"/>
<path class="st0" d="M747.7,242.6c25.2,0,45.1-13.2,54-35.3l-24.7-9.4c-3.8,13-15.1,20.2-29.3,20.2c-18.5,0-31.4-13.2-33.6-34.8
	h88.3v-9.6c0-34.6-19.4-62.2-55.9-62.2s-60,28.6-60,65.5C686.5,216,711.7,242.6,747.7,242.6L747.7,242.6z M746.2,135.8
	c18.2,0,26.9,12,27.1,25.9h-57.8C719.8,144.7,731.3,135.8,746.2,135.8L746.2,135.8z"/>
<path class="st0" d="M824,240h28.8v-73.9c0-18,13.2-27.6,26.2-27.6c15.8,0,22.1,11.3,22.1,26.9V240h28.8v-83
	c0-27.1-15.8-45.4-42.2-45.4c-16.3,0-27.6,7.4-34.8,15.8V114H824V240z"/>
<path class="st0" d="M1014.2,67.7L948.9,240h30.5l14.6-39.4h74.4l14.9,39.4h31L1049,67.7L1014.2,67.7z M1031,101.8l27.4,72h-54.2
	L1031,101.8z"/>
<path class="st0" d="M1163.7,68.2H1133v172.3h30.7V68.2z"/>
<path class="st0" d="M297.1,131c7.3-21.8,4.8-45.7-6.9-65.5c-17.5-30.4-52.6-46-86.8-38.7C188.1,9.6,166.2-0.1,143.2,0
	c-35-0.1-66.1,22.5-76.9,55.8C43.8,60.4,24.4,74.5,13,94.5C-4.6,124.8-0.6,163,22.9,189c-7.3,21.8-4.8,45.7,6.9,65.5
	c17.5,30.4,52.6,46,86.8,38.7c15.2,17.2,37.2,27,60.1,26.8c35.1,0.1,66.2-22.5,76.9-55.9c22.5-4.6,41.9-18.7,53.3-38.7
	C324.6,195.1,320.6,157,297.1,131L297.1,131z M176.8,299.1c-14,0-27.6-4.9-38.4-13.9c0.5-0.3,1.3-0.7,1.9-1.1l63.7-36.8
	c3.3-1.9,5.3-5.3,5.2-9.1v-89.8l26.9,15.6c0.3,0.1,0.5,0.4,0.5,0.7v74.4C236.7,272.2,209.9,299,176.8,299.1L176.8,299.1z
	 M47.9,244.1c-7-12.1-9.6-26.4-7.2-40.2c0.5,0.3,1.3,0.8,1.9,1.1l63.7,36.8c3.2,1.9,7.2,1.9,10.5,0l77.8-44.9V228
	c0,0.3-0.1,0.6-0.4,0.8L129.9,266C101.2,282.5,64.5,272.7,47.9,244.1L47.9,244.1z M31.2,105c7-12.2,18-21.5,31.2-26.3
	c0,0.6,0,1.5,0,2.2v73.6c0,3.7,2,7.2,5.2,9.1l77.8,44.9L118.4,224c-0.3,0.2-0.6,0.2-0.9,0.1l-64.4-37.2
	C24.5,170.3,14.7,133.7,31.2,105L31.2,105z M252.4,156.5l-77.8-44.9L201.6,96c0.3-0.2,0.6-0.2,0.9-0.1l64.4,37.2
	c28.7,16.6,38.5,53.3,21.9,81.9c-7,12.1-18,21.4-31.2,26.3v-75.8C257.7,161.8,255.7,158.3,252.4,156.5L252.4,156.5z M279.2,116.1
	c-0.5-0.3-1.3-0.8-1.9-1.1l-63.7-36.8c-3.2-1.9-7.2-1.9-10.5,0l-77.8,44.9V92c0-0.3,0.1-0.6,0.4-0.8L190.1,54
	c28.7-16.5,65.4-6.7,81.9,22C279,88.1,281.6,102.3,279.2,116.1L279.2,116.1z M110.7,171.5L83.8,156c-0.3-0.1-0.5-0.4-0.5-0.7V80.9
	c0-33.1,26.9-60,60-59.9c14,0,27.6,4.9,38.3,13.9c-0.5,0.3-1.3,0.7-1.9,1.1L116,72.7c-3.3,1.8-5.3,5.3-5.2,9.1L110.7,171.5
	L110.7,171.5z M125.3,140l34.7-20l34.7,20v40L160,200l-34.7-20L125.3,140z"/>
</svg>
