<svg width="203" height="44" viewBox="0 0 203 44" fill="none" xmlns="http://www.w3.org/2000/svg">
<path d="M34.0964 10.5312C30.4424 10.5312 27.1469 12.1089 24.8407 14.6244L28.9685 20.9133C29.8571 18.948 31.821 17.5791 34.0964 17.5791C37.2053 17.5791 39.7343 20.1327 39.7343 23.2717C39.7343 26.4107 37.2053 28.9641 34.0964 28.9641C31.9942 28.9641 30.2558 27.7375 29.19 26.0704C23.7601 17.5792 24.5789 18.7732 22.8217 16.0028C22.3949 15.3292 21.8821 14.6312 21.7532 14.4943C19.4537 12.0547 16.2092 10.5312 12.6183 10.5312C5.6608 10.5312 0 16.2469 0 23.2717C0 30.2965 5.6608 36.0121 12.6183 36.0121C16.2911 36.0121 19.6014 34.4194 21.9089 31.8822L17.8093 25.493C16.9502 27.5315 14.9474 28.9641 12.6183 28.9641C9.50939 28.9641 6.98036 26.4107 6.98036 23.2717C6.98036 20.1327 9.50939 17.5791 12.6183 17.5791C14.6923 17.5791 16.4508 18.7516 17.4871 20.4065C21.7465 27.2024 22.1425 27.7294 23.9856 30.619C24.4608 31.3631 25.2286 32.3323 25.4796 32.5695C27.7362 34.7029 30.7673 36.0121 34.0964 36.0121C41.0539 36.0121 46.7147 30.2965 46.7147 23.2717C46.7147 16.2469 41.0539 10.5312 34.0964 10.5312Z" fill="#DB3957"/>
<path d="M59.1274 36.4292H63.6654V11.5703H59.1274V36.4292ZM68.0798 36.4292H72.451V25.7849C72.451 24.6059 72.7846 23.6605 73.452 22.9487C74.1416 22.2368 75.0314 21.8809 76.1214 21.8809C77.2114 21.8809 78.0901 22.2368 78.7575 22.9487C79.4471 23.6383 79.7918 24.5837 79.7918 25.7849V36.4292H84.163V24.7505C84.163 23.3936 83.8738 22.2035 83.2954 21.1802C82.7171 20.1347 81.9051 19.3227 80.8596 18.7443C79.8363 18.166 78.6573 17.8768 77.3226 17.8768C76.1881 17.8768 75.1649 18.0992 74.2528 18.5441C73.363 18.989 72.6734 19.6453 72.184 20.5128V18.2772H68.0798V36.4292ZM89.9614 36.4292H94.3326V22.1812H100.672V36.4292H105.043V18.2772H94.3326V17.6766C94.3326 16.7645 94.5995 16.0972 95.1334 15.6745C95.6895 15.2296 96.4459 15.0072 97.4024 15.0072C97.7583 15.0072 98.1365 15.0405 98.5369 15.1073V11.3367C98.0253 11.2255 97.458 11.1699 96.8351 11.1699C94.7441 11.1699 93.0757 11.7371 91.83 12.8716C90.5843 14.0061 89.9614 15.6078 89.9614 17.6766V18.2772H86.7581V22.1812H89.9614V36.4292ZM108.681 36.4292H113.052V25.7849C113.052 24.6059 113.386 23.6605 114.053 22.9487C114.743 22.2368 115.633 21.8809 116.723 21.8809C117.813 21.8809 118.691 22.2368 119.359 22.9487C120.048 23.6383 120.393 24.5837 120.393 25.7849V36.4292H124.764V24.7505C124.764 23.3936 124.475 22.2035 123.897 21.1802C123.318 20.1347 122.506 19.3227 121.461 18.7443C120.438 18.166 119.259 17.8768 117.924 17.8768C116.789 17.8768 115.766 18.0992 114.854 18.5441C113.964 18.989 113.275 19.6453 112.785 20.5128V18.2772H108.681V36.4292ZM128.461 16.2418H132.832V11.5703H128.461V16.2418ZM128.461 36.4292H132.832V18.2772H128.461V36.4292ZM135.233 36.4292H140.371L144.175 30.7901L147.946 36.4292H153.051L146.744 27.3198L153.084 18.2772H147.979L144.175 23.9163L140.338 18.2772H135.199L141.572 27.3198L135.233 36.4292Z" fill="white"/>
<path d="M174.895 20.2497C175.485 20.2497 176.003 20.1446 176.448 19.9342C176.901 19.7158 177.253 19.4165 177.503 19.0364C177.762 18.6562 177.892 18.2193 177.892 17.7259C177.892 16.5449 177.172 15.7319 175.732 15.287L174.215 14.8381C173.786 14.7006 173.467 14.5024 173.257 14.2435C173.046 13.9766 172.941 13.6814 172.941 13.3578C172.941 12.9372 173.091 12.6055 173.39 12.3628C173.689 12.1121 174.082 11.9867 174.567 11.9867C175.093 11.9867 175.55 12.1202 175.938 12.3871C176.334 12.654 176.626 13.0383 176.812 13.5398L177.831 13.1151C177.693 12.7026 177.467 12.3305 177.151 11.9988C176.844 11.6672 176.468 11.4043 176.023 11.2101C175.586 11.016 175.097 10.9189 174.555 10.9189C174.013 10.9189 173.528 11.0281 173.099 11.2465C172.678 11.4568 172.346 11.7521 172.104 12.1323C171.869 12.5044 171.752 12.9372 171.752 13.4306C171.752 13.9968 171.926 14.4984 172.274 14.9352C172.622 15.372 173.123 15.6915 173.778 15.8937L175.441 16.4033C175.845 16.5247 176.156 16.6946 176.375 16.913C176.593 17.1314 176.702 17.4307 176.702 17.8108C176.702 18.2315 176.537 18.5672 176.205 18.8179C175.881 19.0606 175.453 19.182 174.919 19.182C174.336 19.182 173.827 19.0283 173.39 18.7209C172.953 18.4054 172.63 17.9565 172.419 17.374L171.388 17.7987C171.534 18.2598 171.772 18.6764 172.104 19.0485C172.435 19.4125 172.84 19.7037 173.317 19.9221C173.794 20.1405 174.32 20.2497 174.895 20.2497ZM183.952 20.2497C184.599 20.2497 185.198 20.1365 185.748 19.91C186.306 19.6754 186.796 19.3478 187.216 18.9271C187.637 18.5065 187.964 18.0131 188.199 17.4468C188.434 16.8806 188.551 16.2577 188.551 15.5783C188.551 14.9069 188.434 14.288 188.199 13.7218C187.964 13.1475 187.637 12.654 187.216 12.2415C186.796 11.8209 186.306 11.4973 185.748 11.2708C185.198 11.0362 184.599 10.9189 183.952 10.9189C183.313 10.9189 182.715 11.0362 182.156 11.2708C181.598 11.4973 181.109 11.8209 180.688 12.2415C180.276 12.654 179.952 13.1434 179.718 13.7097C179.483 14.2759 179.366 14.8988 179.366 15.5783C179.366 16.2577 179.483 16.8806 179.718 17.4468C179.952 18.0131 180.28 18.5065 180.7 18.9271C181.121 19.3478 181.606 19.6754 182.156 19.91C182.715 20.1365 183.313 20.2497 183.952 20.2497ZM183.952 19.1456C183.297 19.1456 182.71 18.9878 182.193 18.6723C181.683 18.3488 181.283 17.9201 180.992 17.3862C180.7 16.8442 180.555 16.2416 180.555 15.5783C180.555 14.9149 180.7 14.3163 180.992 13.7825C181.283 13.2486 181.683 12.8239 182.193 12.5084C182.702 12.1849 183.289 12.0231 183.952 12.0231C184.615 12.0231 185.202 12.1849 185.712 12.5084C186.221 12.8239 186.622 13.2486 186.913 13.7825C187.204 14.3163 187.35 14.9149 187.35 15.5783C187.35 16.2416 187.204 16.8442 186.913 17.3862C186.622 17.9201 186.221 18.3488 185.712 18.6723C185.202 18.9878 184.615 19.1456 183.952 19.1456ZM190.285 20.1041H191.474V16.1728H195.588V15.0808H191.474V12.1566H196.012V11.0645H190.285V20.1041ZM198.937 20.1041H200.138V12.1566H202.552V11.0645H196.486V12.1566H198.937V20.1041Z" fill="white"/>
<path d="M162.592 10.5312V36.0121" stroke="white" stroke-width="0.485347"/>
</svg>
